<svg xmlns="http://www.w3.org/2000/svg" viewBox="0 0 411.19 339.6"><defs><style>.cls-1{fill:#008228;}</style></defs><g id="Слой_2" data-name="Слой 2"><g id="Группа_3_Изображение" data-name="Группа 3 Изображение"><path class="cls-1" d="M0,187c1.5-8,2.61-16.07,4.46-24,5-21.43,16-39,36.16-48.88,8.28-4,12.52-9.68,16.57-17.4C84.65,44.45,128.46,14.2,186,3.16,193.35,1.76,200.8,1,208.19,0h20A38.75,38.75,0,0,0,233,1c30.27,2.29,58.44,11.24,83.88,27.73,46.12,29.88,73.52,71.7,79.38,126.92.06.6.53,3.42.49,3.72a24.49,24.49,0,0,1,2.58,2.11c4.42,3.69,7.22,8.71,9.37,15,.57,1.68,1,3.44,1.45,5.22a37,37,0,0,1,1,8.64l-.08,4.1a47.51,47.51,0,0,1-.53,9.24c-.12.61-.31,1.61-.38,2.23-2.1,18.26-6.27,36-14.84,52.34-17.89,34.12-48.7,50.24-83.85,60.15-4.45,1.25-8.74,3-13.08,4.55a315.69,315.69,0,0,1-39.66,12c-2.92.68-4.18,1-5.43,1.32-8,2-15.2,2.71-25,3.35l-19.66-.09c-2.13-.13-3.66-.35-5.29-.48A179.24,179.24,0,0,1,110,304.89c-8.32-6-15-14.54-23.85-19.53s-19.8-6.61-29.39-10.73C28.92,262.68,11.05,241.74,3,212.54,1.8,208.42,1.1,204.18.19,200ZM290.68,320.26l-.2-1.92c-1.2-.55-2.42-1.06-3.6-1.64-12.34-6.1-17.4-16.29-12.73-29.28A85.41,85.41,0,0,1,287,264a169.64,169.64,0,0,1,24-24.69c3.32-2.78,8.89-9.84,8.89-9.84,0-.31-.88-6.34-1.87-11.2-3-14.71-2.4-29.56,4.16-43.53,7.2-15.32,16.56-17.34,26.83-14.13a5.11,5.11,0,0,0,.54-.8c7.88-18.07,23.81-20,35.71-4.46.94,1.23,3.64,1.59,5.74,2.46-.23-2.08-.36-3.11-.44-3.93-2.6-26.75-11.85-51.1-27-73.2C321.57,19.46,242.28-8.66,169.18,12.58,113.13,28.86,73.9,64.12,53.4,119.31c-.77,2.08-1.22,4.28-1.83,6.43,13.28,3,16.32,7.69,13.31,20.46-1,4.49-2.82,8.82-4.26,13.19,13.73,7.42,16.3,15.1,8.61,29-4.24,7.67-9.67,14.72-15,21.75-2.14,2.84-2.75,5.1-1.59,8.55,8.81,26.26,23.09,49.11,43.5,67.73,45.08,41.12,98.15,55,157.78,44.21C266.4,328.35,278.44,323.77,290.68,320.26Zm30.17-85.12c-.29.41-1,1.27-1.71,2.18-11,12.18-23.94,22.91-32.8,36.71-3.66,5.69-5.52,10.91-7.53,16.68-2.62,7.54.17,13.69,6.29,18.45a24.93,24.93,0,0,0,22.77,4.36,251.8,251.8,0,0,0,34.48-12.73C392.12,278,406,230.14,405.11,186.44c-.15-7.45-2.63-14.49-8.36-19.73-2-1.86-6.26-3.51-8.24-4.37,4.56,26.85,5.2,51-1.8,75.88a26.71,26.71,0,0,1-3-.64,10.35,10.35,0,0,1-1.76-1,10.49,10.49,0,0,1,.14-1.47c4.84-18.8,5.55-37.87,3.14-57a84.42,84.42,0,0,0-5.06-20.19c-2.67-6.78-12.63-9.29-18.85-5.71s-7.87,11.21-4,17.73a30.71,30.71,0,0,1,2.47,4.89c5.83,16.11,7.82,32.65,4.88,49.59a50.31,50.31,0,0,1-9.33,22.09l-4.05-3.06c13.66-20.64,9.89-51.09,3.13-66.83-2.44-5.68-5.34-11.49-12.79-11.73-7.66-.25-10.9,5.13-13.74,11.22-3.37,7.1-5.6,15-5.45,22.5.26,13.22,2.78,26.39,4.34,39.58.13,1.11.14,2.24.21,3.55l-4.52,1C321.8,241,321.35,236.51,320.85,235.14ZM40.29,218.21c4.62-5.5,9.48-10.58,13.49-16.25,4.68-6.63,9.28-13.46,12.72-20.77,4.1-8.69-1.1-16.3-10.76-16.18a26.65,26.65,0,0,0-12.3,3.14,71.8,71.8,0,0,0-24.3,22.6c-5.42,8-8.19,16.74-7,26.44,1.31,10.4,6.05,19.28,12.67,27.23,12.09,14.5,27.56,23.86,45.35,29.65,2.43.79,4.88,1.48,7.64,2.31-6.16-9.45-12.48-18.05-17.61-27.32S51,229.62,46.42,219.72l-3,2ZM6.51,201.94l1.26.18c.22-.59.41-1.19.66-1.77,8.5-20.16,22-34.94,43.74-41.06,1-.29,2.45-.91,2.72-1.71,2-5.78,4.27-11.55,5.33-17.52.94-5.37-2-8.69-7.43-8s-11.35,2.11-15.73,5.12A75.55,75.55,0,0,0,9.25,172.29C5.45,181.91,5.41,191.91,6.51,201.94Zm9.38-52.12a36.7,36.7,0,0,1,3.58-4.07c6.56-5.53,12.56-12.2,20-16,6-3.07,7.33-7.08,8.44-12.51C36.28,119.54,19.48,136.18,15.89,149.82Z"/><path class="cls-1" d="M133,149.5,131.39,153c-7.07-2.35-15.31-4.27-22.58-2.53-.21.51.57,0,.35.51a34.51,34.51,0,0,0,2,3c7.78,9.29,17.62,15.72,28.72,20.23a245.89,245.89,0,0,0,71.62,16.95c28.13,2.42,55.28-4.44,80.23-23l4,3.79c-6.77,2.61-6.8,8.13-7.85,13.72-5,26.38-22.2,41.86-46.91,49.29-39.81,12-72.23-1.46-99.24-30.92-5.37-5.85-10.48-12.35-13.94-19.42C122.15,173,113.53,164,104.79,155c-2.18-2.26-3.83-2.37-6.45-1-7,3.66-10.8,9.65-13,17.09l-4.42-1C83.24,147.78,113.56,137.93,133,149.5Zm88.48,49.79c-.58,11.65-1.13,22.72-1.68,33.78,29.26,1.35,61-24.36,62.74-49.66a1.53,1.53,0,0,0-2.31-1.26c-17.52,9.52-36.33,14.13-56.58,15A2.27,2.27,0,0,0,221.46,199.29Zm-53.77-9.74c0,9.42-.05,18.55.06,27.69a4,4,0,0,0,1.49,2.87c13.5,8.8,27.88,14.67,45,13.09.59-11.35,1.3-23.07,1.87-33.93a2.07,2.07,0,0,0-1.82-2.16C198.65,195.14,183.38,192.26,167.69,189.55Zm-5.62,26c0-8.93-.17-16.56.08-24.17.1-3.16-1.28-4.18-4-5.1-8.46-2.91-16.81-6.13-25.21-9.2-1-.36-2-.55-4-1.08C137.53,191.54,147.5,204.51,162.07,215.51Z"/><path class="cls-1" d="M234.67,43.49c-8.45-3.31-16.07-7.21-18.7-16.72,2.89-1.59,4.6-1.76,6.5,1.55,4.76,8.28,13.32,10.21,21.85,10.92,13.26,1.1,26.58,1.49,39.88,2.08,12.29.55,22.79,5.37,32.64,13.21l-3.13,4a54.48,54.48,0,0,0-15-8.12c-.95-.73.51.58,1.37,1.36,15,15.06,16.88,32.86,10.94,52.65,8.41-3,15.87-6.68,26-3.38-2.45,1.83-4,4-5.48,3.92-9.39-.26-17.54,3.29-24.31,9-11.28,9.53-23.15,19.45-32.69,30-1.19,1.11-2.21,2.41-3.46,3.8l-4-3.32,6.45-7.92c-6.11.31-11.25-.65-16.57-1.25a77.81,77.81,0,0,1-11.24-2.1c-22.68-6-35.51-26.26-32.66-49.66,1.87-15.35,7.92-28,19.73-37.91A28.21,28.21,0,0,0,234.67,43.49Zm32.5,87.5c8.62,1,13.55-1.51,20.81-7.54,3.67-3,7.28-6.3,10.94-9.44a17,17,0,0,0,3.56-4.4c11.88-24.15,7.42-46.13-15.76-61.8a7.85,7.85,0,0,0-3.79-.94c-12.78-.67-25.58-1.33-38.37-1.79a8,8,0,0,0-4.41,1.72c-12.36,8.88-20,20.59-21.64,36-2.12,20.18,5.88,40.72,31,45.62C255.31,129.57,261.26,130.15,267.17,131Z"/><path class="cls-1" d="M184.13,27.64l4.87-.88c.31,9-5.44,14.68-10.72,20.79,20.59,12.31,31.58,30.18,29.38,54-1.91,20.61-16,32.38-33.72,39.78l-2.74,6.56c-9.93-6.64-19.06-13-28.44-18.92s-18.89-12.18-30.39-13.15a69.36,69.36,0,0,0-16.79.63c-.6.1-3.93,1.4-3.78,1.19S90,114.34,89.43,113c6.62-3.87,14-3.75,21.54-3.33-1.82-7-3.53-13.65-5.3-20.5l-3.11,4.44-4.74-2.07C105,78,114,67.17,128.74,62.24c11.5-3.83,23.13-7.43,34.3-12.08C173.13,46,181.35,39.23,184.13,27.64Zm18.61,69c-.88-16.08-6.94-29.51-20-39.54-5.59-4.3-8.95-5.62-17.62-1.8-2.77,1.22-5.65,2.79-8.63,3.79-8.34,2.79-16.88,5-25.07,8.22-5,1.93-10.73,4.18-13.91,8.09a23.43,23.43,0,0,0-4.46,21.2c2.12,7.78,4.49,14.21,13.77,18,12.48,5,23.56,13.5,35.31,20.37,1.75,1,4,2.27,5.79,1.94C184.91,133.63,203.5,116.39,202.74,96.6Z"/><path class="cls-1" d="M247.69,115a17.25,17.25,0,1,1,17.49-16.9A17.55,17.55,0,0,1,247.69,115Zm11.93-18.26a6.69,6.69,0,1,0-6.57,6.69A6.64,6.64,0,0,0,259.62,96.72Z"/><path class="cls-1" d="M191.21,98.76c0,9.34-8.21,17.27-17.82,17.25s-17.77-8-17.75-17.32,8.22-17.27,17.82-17.25S191.23,89.43,191.21,98.76Zm-4.62-1.88a6.68,6.68,0,1,0-6.71,6.53A6.65,6.65,0,0,0,186.59,96.88Z"/></g></g></svg>