<svg width="136" height="52" viewBox="0 0 136 52" fill="none" xmlns="http://www.w3.org/2000/svg">
<g clip-path="url(#clip0_5323_935)">
<mask id="mask0_5323_935" style="mask-type:luminance" maskUnits="userSpaceOnUse" x="0" y="6" width="136" height="40">
<path d="M0.5 6.09362H135.5V45.9062H0.5V6.09362Z" fill="white"/>
</mask>
<g mask="url(#mask0_5323_935)">
<path d="M130.5 45.906H5.49997C2.75003 45.906 0.5 43.6667 0.5 40.9294V11.0699C0.5 8.33266 2.75003 6.09333 5.49997 6.09333H130.5C133.25 6.09333 135.5 8.33266 135.5 11.0699V40.9294C135.5 43.6667 133.25 45.906 130.5 45.906Z" fill="#100F0D"/>
<path d="M130.5 6.09362H5.49997C2.75003 6.09362 0.5 8.33294 0.5 11.0702V40.9297C0.5 43.6669 2.75003 45.9062 5.49997 45.9062H130.5C133.25 45.9062 135.5 43.6669 135.5 40.9297V11.0702C135.5 8.33294 133.25 6.09362 130.5 6.09362ZM130.5 6.88984C132.816 6.88984 134.7 8.76496 134.7 11.0702V40.9297C134.7 43.2349 132.816 45.1101 130.5 45.1101H5.49997C3.18399 45.1101 1.3 43.2349 1.3 40.9297V11.0702C1.3 8.76496 3.18399 6.88984 5.49997 6.88984H130.5Z" fill="#A2A2A1"/>
<path d="M107.436 35.953H109.302V23.5106H107.436V35.953ZM124.243 27.9924L122.104 33.3871H122.04L119.82 27.9924H117.81L121.139 35.532L119.241 39.7263H121.187L126.318 27.9924H124.243ZM113.661 34.5396C113.049 34.5396 112.197 34.2351 112.197 33.4826C112.197 32.5222 113.258 32.1548 114.175 32.1548C114.995 32.1548 115.381 32.3311 115.88 32.5708C115.735 33.7234 114.738 34.5396 113.661 34.5396ZM113.886 27.7207C112.535 27.7207 111.135 28.3129 110.556 29.6248L112.213 30.3135C112.567 29.6248 113.226 29.4008 113.918 29.4008C114.883 29.4008 115.864 29.9771 115.88 31.0013V31.1297C115.542 30.9377 114.818 30.65 113.934 30.65C112.149 30.65 110.331 31.6264 110.331 33.4507C110.331 35.116 111.795 36.188 113.435 36.188C114.69 36.188 115.381 35.6285 115.816 34.9716H115.88V35.9322H117.681V31.1615C117.681 28.9529 116.025 27.7207 113.886 27.7207ZM102.354 29.5073H99.7001V25.2414H102.354C103.749 25.2414 104.541 26.392 104.541 27.3744C104.541 28.3389 103.749 29.5073 102.354 29.5073ZM102.306 23.5106H97.8352V35.953H99.7001V31.2392H102.306C104.374 31.2392 106.407 29.7481 106.407 27.3744C106.407 25.0005 104.374 23.5106 102.306 23.5106ZM77.9252 34.5417C76.6362 34.5417 75.5572 33.4678 75.5572 31.9927C75.5572 30.5017 76.6362 29.4107 77.9252 29.4107C79.1982 29.4107 80.1961 30.5017 80.1961 31.9927C80.1961 33.4678 79.1982 34.5417 77.9252 34.5417ZM80.0672 28.6892H80.0032C79.5842 28.1925 78.7793 27.7426 77.7642 27.7426C75.6371 27.7426 73.6881 29.6029 73.6881 31.9927C73.6881 34.3655 75.6371 36.2099 77.7642 36.2099C78.7793 36.2099 79.5842 35.761 80.0032 35.2475H80.0672V35.8564C80.0672 37.4768 79.1983 38.3419 77.7962 38.3419C76.6521 38.3419 75.9432 37.5246 75.6531 36.8348L74.0262 37.5088C74.4931 38.6314 75.7342 40.01 77.7962 40.01C79.9871 40.01 81.8402 38.7271 81.8402 35.6006V27.9995H80.0672V28.6892ZM83.1281 35.953H84.9972V23.5096H83.1281V35.953ZM87.7522 31.8483C87.7041 30.212 89.0252 29.3789 89.9751 29.3789C90.7171 29.3789 91.3451 29.7473 91.5541 30.2766L87.7522 31.8483ZM93.5521 30.437C93.1971 29.4904 92.1181 27.7426 89.9111 27.7426C87.7202 27.7426 85.9002 29.4586 85.9002 31.9767C85.9002 34.3495 87.7041 36.2099 90.1201 36.2099C92.0701 36.2099 93.1971 35.0234 93.6652 34.3337L92.2151 33.3712C91.7311 34.0768 91.0711 34.5417 90.1201 34.5417C89.1701 34.5417 88.4932 34.1087 88.0581 33.2598L93.7452 30.9177L93.5521 30.437ZM48.2442 29.0426V30.838H52.5612C52.4321 31.8483 52.0942 32.5859 51.579 33.0984C50.9502 33.7244 49.9672 34.4134 48.2442 34.4134C45.5851 34.4134 43.5071 32.2814 43.5071 29.6348C43.5071 26.9892 45.5851 24.8572 48.2442 24.8572C49.6782 24.8572 50.7252 25.4176 51.4982 26.1391L52.7711 24.8732C51.6911 23.847 50.2581 23.0607 48.2442 23.0607C44.6031 23.0607 41.5422 26.0118 41.5422 29.6348C41.5422 33.2598 44.6031 36.2099 48.2442 36.2099C50.2092 36.2099 51.6911 35.5678 52.8511 34.3655C54.0431 33.1791 54.4143 31.512 54.4143 30.1643C54.4143 29.7473 54.3821 29.3631 54.3171 29.0426H48.2442ZM59.3221 34.5417C58.0342 34.5417 56.9222 33.4836 56.9222 31.9767C56.9222 30.4528 58.0342 29.4107 59.3221 29.4107C60.6111 29.4107 61.7231 30.4528 61.7231 31.9767C61.7231 33.4836 60.6111 34.5417 59.3221 34.5417ZM59.3221 27.7426C56.9701 27.7426 55.0531 29.5233 55.0531 31.9767C55.0531 34.4134 56.9701 36.2099 59.3221 36.2099C61.6742 36.2099 63.5922 34.4134 63.5922 31.9767C63.5922 29.5233 61.6742 27.7426 59.3221 27.7426ZM68.6361 34.5417C67.3471 34.5417 66.2351 33.4836 66.2351 31.9767C66.2351 30.4528 67.3471 29.4107 68.6361 29.4107C69.9253 29.4107 71.0362 30.4528 71.0362 31.9767C71.0362 33.4836 69.9253 34.5417 68.6361 34.5417ZM68.6361 27.7426C66.2842 27.7426 64.3671 29.5233 64.3671 31.9767C64.3671 34.4134 66.2842 36.2099 68.6361 36.2099C70.9881 36.2099 72.9051 34.4134 72.9051 31.9767C72.9051 29.5233 70.9881 27.7426 68.6361 27.7426Z" fill="white"/>
<path d="M21.2173 25.4266L10.5703 36.6738C10.5713 36.6757 10.5713 36.6788 10.5723 36.6806C10.8993 37.902 12.0193 38.8008 13.3493 38.8008C13.8813 38.8008 14.3802 38.6574 14.8083 38.4066L14.8423 38.3867L26.8263 31.5041L21.2173 25.4266Z" fill="#EB3131"/>
<path d="M31.988 23.5116L31.9782 23.5045L26.8041 20.5195L20.9751 25.6823L26.825 31.5029L31.9711 28.5479C32.873 28.062 33.4861 27.1156 33.4861 26.0246C33.4861 24.9397 32.882 23.9981 31.988 23.5116Z" fill="#F6B60B"/>
<path d="M10.5699 15.3272C10.5059 15.562 10.4719 15.8089 10.4719 16.0637V35.9383C10.4719 36.1931 10.5059 36.4398 10.5709 36.6738L21.5829 25.7143L10.5699 15.3272Z" fill="#5778C5"/>
<path d="M21.2958 26.0007L26.8058 20.5174L14.8358 13.61C14.4008 13.3502 13.8928 13.2008 13.3498 13.2008C12.0198 13.2008 10.8978 14.1017 10.5708 15.3239C10.5708 15.3249 10.5698 15.326 10.5698 15.327L21.2958 26.0007Z" fill="#3BAD49"/>
</g>
<mask id="mask1_5323_935" style="mask-type:luminance" maskUnits="userSpaceOnUse" x="0" y="6" width="136" height="40">
<path d="M0.5 6.09341H135.5V45.9062H0.5V6.09341Z" fill="white"/>
</mask>
<g mask="url(#mask1_5323_935)">
<path d="M43.5673 18.8796C43.0714 18.597 42.6813 18.2074 42.3973 17.7107C42.1128 17.2142 41.9709 16.6659 41.9709 16.0652C41.9709 15.4651 42.1128 14.9166 42.3973 14.4203C42.6813 13.9238 43.0714 13.534 43.5673 13.2512C44.0632 12.9683 44.6126 12.8268 45.216 12.8268C46.1499 12.8268 46.9181 13.1644 47.5214 13.84L46.8516 14.4894C46.637 14.2354 46.3977 14.0451 46.1338 13.918C45.8699 13.7909 45.5668 13.7273 45.2247 13.7273C44.8013 13.7273 44.4156 13.824 44.0676 14.0174C43.7197 14.2111 43.444 14.485 43.2411 14.8401C43.038 15.1951 42.9366 15.6036 42.9366 16.0652C42.9366 16.5272 43.038 16.9357 43.2411 17.2907C43.444 17.6456 43.7197 17.9201 44.0676 18.1132C44.4156 18.3068 44.8013 18.4035 45.2247 18.4035C45.9323 18.4035 46.5267 18.1119 47.0082 17.5289L47.6955 18.187C47.3939 18.5391 47.0312 18.8135 46.608 19.0096C46.1846 19.2056 45.7206 19.304 45.216 19.304C44.6126 19.304 44.0632 19.1625 43.5673 18.8796Z" fill="white"/>
<path d="M48.7654 12.9655H49.7225V15.9702H49.7745L52.2543 12.9655H53.4549V13.0175L50.8274 16.1173L53.594 19.1135V19.1655H52.3412L49.7745 16.3253H49.7225V19.1655H48.7654V12.9655Z" fill="white"/>
<path d="M58.0483 16.6891L57.3524 14.7882L57.1175 14.0783H57.0653L56.8304 14.7882L56.1345 16.6891H58.0483ZM56.5433 12.9655H57.6308L59.9885 19.1655H58.9358L58.3616 17.5722H55.8212L55.247 19.1655H54.1943L56.5433 12.9655Z" fill="white"/>
<path d="M63.5905 16.4033C63.2018 16.7438 62.7232 16.9141 62.155 16.9141C61.7778 16.9141 61.4371 16.8378 61.1327 16.6845C60.8282 16.5318 60.5889 16.3109 60.4148 16.0222C60.2407 15.7335 60.1538 15.393 60.1538 15.0005V12.9655H61.1195V14.836C61.1195 15.2112 61.2298 15.5014 61.4503 15.7061C61.6706 15.911 61.9663 16.0137 62.3376 16.0137C62.8423 16.0137 63.2599 15.8173 63.5905 15.4246V12.9655H64.5388V19.1655H63.5905V16.4033Z" fill="white"/>
<path d="M69.2363 16.6891L68.5404 14.7882L68.3055 14.0783H68.2533L68.0184 14.7882L67.3225 16.6891H69.2363ZM67.7312 12.9655H68.8188L71.1765 19.1655H70.1238L69.5496 17.5722H67.0092L66.435 19.1655H65.3823L67.7312 12.9655Z" fill="white"/>
<path d="M72.7949 13.8661H71.0461V12.9655H75.4919V13.8661H73.752V19.1655H72.7949V13.8661Z" fill="white"/>
<path d="M78.8323 18.2736C79.0586 18.2736 79.2586 18.2216 79.4327 18.1178C79.6068 18.0138 79.7401 17.8768 79.8329 17.7064C79.9257 17.5363 79.9721 17.3557 79.9721 17.1652C79.9721 16.9749 79.9257 16.7945 79.8329 16.624C79.7401 16.4538 79.6068 16.3153 79.4327 16.2084C79.2586 16.1015 79.0586 16.0482 78.8323 16.0482H77.4405V18.2736H78.8323ZM76.4834 12.9655H77.4405V15.1736H78.7627C79.1514 15.1736 79.5111 15.2528 79.8417 15.4117C80.1723 15.5707 80.436 15.8013 80.6333 16.1044C80.8306 16.4074 80.929 16.761 80.929 17.1652C80.929 17.5693 80.8306 17.9229 80.6333 18.226C80.436 18.529 80.1723 18.7616 79.8417 18.923C79.5111 19.0846 79.1514 19.1655 78.7627 19.1655H76.4834V12.9655Z" fill="white"/>
<path d="M84.009 12.9655H84.9572V16.3945L84.9051 17.5895H84.9572L87.7499 12.9655H88.8375V19.1655H87.8891V15.6497L87.9414 14.4549H87.8891L85.0529 19.1655H84.009V12.9655Z" fill="white"/>
<path d="M90.7122 18.9056C90.3208 18.64 90.0525 18.2475 89.9075 17.7279L90.786 17.3816C90.8615 17.7049 91.0079 17.9588 91.2255 18.1437C91.443 18.3284 91.6999 18.4208 91.9956 18.4208C92.3145 18.4208 92.5872 18.3212 92.8133 18.1219C93.0396 17.9228 93.1527 17.6761 93.1527 17.3816C93.1527 17.1911 93.0973 17.0166 92.9874 16.8577C92.8771 16.699 92.7264 16.5735 92.535 16.4812C92.3435 16.3888 92.1348 16.3427 91.9086 16.3427H91.3952V15.5111H91.8564C92.1697 15.5111 92.4305 15.426 92.6394 15.2557C92.8482 15.0855 92.9525 14.8561 92.9525 14.5674C92.9525 14.3134 92.8553 14.1027 92.661 13.9351C92.4666 13.7678 92.2244 13.684 91.9348 13.684C91.6738 13.684 91.4531 13.762 91.2734 13.918C91.0934 14.0736 90.9689 14.2585 90.8993 14.4719L90.0552 14.1256C90.177 13.7853 90.399 13.4837 90.721 13.2208C91.0429 12.9581 91.4501 12.8268 91.9433 12.8268C92.3201 12.8268 92.6553 12.9005 92.9481 13.0477C93.2411 13.1948 93.4701 13.397 93.6354 13.6538C93.8007 13.9107 93.8835 14.2009 93.8835 14.5239C93.8835 15.1244 93.6193 15.5689 93.0917 15.8576V15.9096C93.3876 16.0423 93.6281 16.2357 93.8139 16.4897C93.9993 16.7437 94.0923 17.0526 94.0923 17.4164C94.0923 17.7685 94.0007 18.0888 93.8181 18.3775C93.6354 18.666 93.3844 18.8925 93.0658 19.0571C92.7464 19.2216 92.3897 19.304 91.9956 19.304C91.5314 19.304 91.1037 19.171 90.7122 18.9056Z" fill="white"/>
</g>
</g>
<defs>
<clipPath id="clip0_5323_935">
<rect width="135" height="52" fill="white" transform="translate(0.5)"/>
</clipPath>
</defs>
</svg>
