<svg width="121" height="40" viewBox="0 0 121 40" fill="none" xmlns="http://www.w3.org/2000/svg">
<g clip-path="url(#clip0_5323_903)">
<path d="M110.885 0.00013H10.2847C9.91798 0.00013 9.55568 0.00013 9.18995 0.00213C8.8838 0.00413 8.58009 0.00994 8.271 0.01483C7.59951 0.0227318 6.92961 0.0818063 6.2671 0.19154C5.60552 0.303663 4.96467 0.515046 4.36622 0.81854C3.7685 1.1246 3.22235 1.5223 2.74757 1.9972C2.2703 2.47077 1.87246 3.01815 1.56935 3.61829C1.2654 4.21724 1.05464 4.85907 0.94435 5.52161C0.833011 6.18332 0.773098 6.85265 0.76515 7.52361C0.75587 7.83021 0.75489 8.13783 0.75 8.44447V31.5587C0.75489 31.8692 0.75587 32.17 0.76515 32.4806C0.773101 33.1516 0.833013 33.8209 0.94435 34.4825C1.05434 35.1455 1.26511 35.7877 1.56935 36.3868C1.87233 36.985 2.27022 37.5302 2.74757 38.0011C3.22054 38.4781 3.76705 38.8761 4.36622 39.1798C4.96467 39.4841 5.60545 39.6968 6.2671 39.8106C6.92972 39.9195 7.59956 39.9786 8.271 39.9874C8.58009 39.9942 8.8838 39.9981 9.18995 39.9981C9.55567 40.0001 9.918 40.0001 10.2847 40.0001H110.885C111.244 40.0001 111.609 40.0001 111.969 39.9981C112.273 39.9981 112.586 39.9942 112.891 39.9874C113.561 39.9791 114.229 39.92 114.891 39.8106C115.554 39.696 116.198 39.4834 116.799 39.1798C117.397 38.8759 117.943 38.478 118.416 38.0011C118.892 37.5284 119.291 36.9836 119.598 36.3868C119.9 35.7872 120.108 35.1451 120.217 34.4825C120.328 33.8208 120.39 33.1516 120.402 32.4806C120.406 32.17 120.406 31.8692 120.406 31.5587C120.414 31.1954 120.414 30.8341 120.414 30.4649V9.53626C120.414 9.17005 120.414 8.80677 120.406 8.44447C120.406 8.13783 120.406 7.83021 120.402 7.52357C120.39 6.85255 120.328 6.18337 120.217 5.52157C120.108 4.85941 119.899 4.21763 119.598 3.61825C118.98 2.41533 118.002 1.43616 116.799 0.81845C116.198 0.515697 115.554 0.30437 114.891 0.19145C114.23 0.0812328 113.561 0.0221378 112.891 0.01469C112.586 0.00981 112.273 0.00395 111.969 0.002C111.609 0 111.244 0.00013 110.885 0.00013Z" fill="#A6A6A6"/>
<path d="M9.19487 39.125C8.89019 39.125 8.59287 39.1211 8.29058 39.1143C7.66436 39.1061 7.0396 39.0516 6.42144 38.9512C5.84503 38.8519 5.28664 38.6673 4.7647 38.4033C4.24754 38.1415 3.77585 37.7983 3.3677 37.3867C2.95364 36.98 2.60891 36.5082 2.34719 35.9902C2.08258 35.4688 1.89945 34.9099 1.80419 34.333C1.70131 33.7131 1.64565 33.0863 1.63769 32.458C1.63135 32.2471 1.62305 31.5449 1.62305 31.5449V8.44434C1.62305 8.44434 1.63189 7.75293 1.63774 7.5498C1.64536 6.92248 1.7007 6.29665 1.80327 5.67773C1.89871 5.09925 2.08197 4.53875 2.34673 4.01563C2.60749 3.49794 2.9503 3.02586 3.36187 2.61768C3.77297 2.20562 4.24617 1.8606 4.76421 1.59521C5.28495 1.33209 5.84228 1.14873 6.41753 1.05127C7.03772 0.949836 7.66465 0.894996 8.29304 0.88721L9.19536 0.875H111.964L112.877 0.8877C113.5 0.895099 114.121 0.94945 114.735 1.05029C115.316 1.14898 115.88 1.33362 116.406 1.59814C117.444 2.13299 118.289 2.97916 118.821 4.01807C119.082 4.53758 119.262 5.09351 119.357 5.66699C119.46 6.29099 119.518 6.92174 119.53 7.5542C119.533 7.8374 119.533 8.1416 119.533 8.44434C119.541 8.81934 119.541 9.17627 119.541 9.53613V30.4648C119.541 30.8281 119.541 31.1826 119.533 31.54C119.533 31.8652 119.533 32.1631 119.529 32.4697C119.518 33.0909 119.461 33.7104 119.358 34.3232C119.265 34.9043 119.083 35.4675 118.818 35.9932C118.555 36.5056 118.212 36.9733 117.803 37.3789C117.394 37.7927 116.922 38.1379 116.403 38.4014C115.878 38.6674 115.316 38.8527 114.735 38.9512C114.117 39.0522 113.492 39.1067 112.866 39.1143C112.573 39.1211 112.267 39.125 111.969 39.125L110.885 39.127L9.19487 39.125Z" fill="black"/>
<path d="M25.5189 20.3006C25.5296 19.4659 25.7513 18.6475 26.1634 17.9216C26.5754 17.1956 27.1643 16.5857 27.8754 16.1485C27.4237 15.5034 26.8277 14.9724 26.1349 14.5979C25.4421 14.2233 24.6715 14.0155 23.8843 13.9908C22.205 13.8146 20.5771 14.9957 19.7214 14.9957C18.8491 14.9957 17.5316 14.0083 16.1129 14.0375C15.1952 14.0672 14.3009 14.334 13.517 14.8121C12.7331 15.2901 12.0864 15.9631 11.64 16.7654C9.70595 20.1138 11.1485 25.0349 13.0011 27.7415C13.928 29.0668 15.0113 30.5473 16.4288 30.4948C17.8158 30.4372 18.3339 29.6103 20.0082 29.6103C21.6669 29.6103 22.153 30.4948 23.5992 30.4614C25.0876 30.4372 26.0253 29.1302 26.9197 27.7923C27.5857 26.8479 28.0981 25.8042 28.4381 24.6997C27.5734 24.334 26.8355 23.7218 26.3164 22.9395C25.7972 22.1572 25.5199 21.2394 25.5189 20.3006Z" fill="white"/>
<path d="M22.7872 12.2108C23.5987 11.2366 23.9985 9.98445 23.9017 8.72021C22.6619 8.85044 21.5166 9.44299 20.6941 10.3798C20.292 10.8375 19.984 11.3699 19.7878 11.9467C19.5915 12.5235 19.5109 13.1333 19.5504 13.7412C20.1706 13.7476 20.7841 13.6132 21.3447 13.3481C21.9054 13.083 22.3986 12.6942 22.7872 12.2108Z" fill="white"/>
<path d="M43.0522 27.1397H38.3188L37.1821 30.4961H35.1772L39.6606 18.0781H41.7436L46.227 30.4961H44.188L43.0522 27.1397ZM38.8091 25.5908H42.5611L40.7115 20.1436H40.6597L38.8091 25.5908Z" fill="white"/>
<path d="M55.9097 25.9697C55.9097 28.7832 54.4038 30.5908 52.1314 30.5908C51.5557 30.6209 50.9832 30.4883 50.4794 30.2082C49.9756 29.928 49.5609 29.5117 49.2827 29.0068H49.2397V33.4912H47.3813V21.4423H49.1802V22.9482H49.2144C49.5053 22.4457 49.9271 22.0316 50.4347 21.7497C50.9423 21.4679 51.5169 21.3289 52.0972 21.3476C54.395 21.3476 55.9097 23.164 55.9097 25.9697ZM53.9995 25.9697C53.9995 24.1367 53.0523 22.9316 51.607 22.9316C50.187 22.9316 49.232 24.1621 49.232 25.9697C49.232 27.7939 50.187 29.0156 51.607 29.0156C53.0523 29.0156 53.9995 27.8193 53.9995 25.9697Z" fill="white"/>
<path d="M65.8745 25.9697C65.8745 28.7832 64.3687 30.5908 62.0962 30.5908C61.5206 30.6209 60.9481 30.4883 60.4443 30.2081C59.9405 29.928 59.5258 29.5117 59.2476 29.0068H59.2046V33.4912H57.3462V21.4423H59.145V22.9482H59.1792C59.4701 22.4457 59.8919 22.0315 60.3995 21.7497C60.9071 21.4679 61.4817 21.3289 62.062 21.3476C64.3599 21.3476 65.8745 23.164 65.8745 25.9697ZM63.9644 25.9697C63.9644 24.1367 63.0171 22.9316 61.5718 22.9316C60.1519 22.9316 59.1968 24.1621 59.1968 25.9697C59.1968 27.7939 60.1519 29.0156 61.5718 29.0156C63.0171 29.0156 63.9644 27.8193 63.9644 25.9697Z" fill="white"/>
<path d="M72.4605 27.0362C72.5982 28.2676 73.7945 29.0762 75.4292 29.0762C76.9956 29.0762 78.1226 28.2676 78.1226 27.1572C78.1226 26.1934 77.4429 25.6162 75.8335 25.2207L74.2242 24.833C71.9439 24.2822 70.8853 23.2158 70.8853 21.4854C70.8853 19.3428 72.7525 17.8711 75.4038 17.8711C78.0278 17.8711 79.8267 19.3428 79.8872 21.4854H78.0112C77.8989 20.2461 76.8745 19.4981 75.3774 19.4981C73.8804 19.4981 72.856 20.2549 72.856 21.3565C72.856 22.2344 73.5103 22.751 75.1108 23.1465L76.479 23.4824C79.0269 24.0849 80.0855 25.1084 80.0855 26.9248C80.0855 29.248 78.2349 30.7031 75.2915 30.7031C72.5376 30.7031 70.6782 29.2822 70.5581 27.0361L72.4605 27.0362Z" fill="white"/>
<path d="M84.0962 19.2998V21.4424H85.8179V22.9141H84.0962V27.9053C84.0962 28.6807 84.4409 29.042 85.1977 29.042C85.4021 29.0384 85.6062 29.0241 85.8091 28.999V30.4619C85.4688 30.5255 85.1229 30.5543 84.7768 30.5478C82.9438 30.5478 82.229 29.8593 82.229 28.1035V22.9141H80.9126V21.4424H82.229V19.2998H84.0962Z" fill="white"/>
<path d="M86.8149 25.9697C86.8149 23.1211 88.4927 21.3311 91.1089 21.3311C93.7339 21.3311 95.4038 23.1211 95.4038 25.9697C95.4038 28.8262 93.7427 30.6084 91.1089 30.6084C88.476 30.6084 86.8149 28.8262 86.8149 25.9697ZM93.5102 25.9697C93.5102 24.0156 92.6147 22.8623 91.1089 22.8623C89.603 22.8623 88.7085 24.0244 88.7085 25.9697C88.7085 27.9316 89.603 29.0762 91.1089 29.0762C92.6147 29.0762 93.5102 27.9316 93.5102 25.9697Z" fill="white"/>
<path d="M96.936 21.4425H98.7085V22.9835H98.7515C98.8714 22.5022 99.1534 22.0769 99.55 21.779C99.9466 21.4811 100.434 21.3288 100.929 21.3478C101.143 21.347 101.357 21.3703 101.566 21.4171V23.1554C101.296 23.0728 101.014 23.0348 100.731 23.0431C100.461 23.0321 100.192 23.0797 99.942 23.1826C99.6921 23.2855 99.4675 23.4412 99.2835 23.6391C99.0996 23.837 98.9606 24.0724 98.8762 24.3291C98.7917 24.5857 98.7639 24.8576 98.7944 25.1261V30.4962H96.936L96.936 21.4425Z" fill="white"/>
<path d="M110.134 27.8369C109.884 29.4805 108.284 30.6084 106.236 30.6084C103.602 30.6084 101.967 28.8437 101.967 26.0127C101.967 23.1729 103.611 21.3311 106.158 21.3311C108.663 21.3311 110.238 23.0518 110.238 25.7969V26.4336H103.843V26.5459C103.814 26.8791 103.855 27.2148 103.966 27.5306C104.076 27.8464 104.252 28.1352 104.482 28.3778C104.713 28.6203 104.992 28.8111 105.302 28.9374C105.611 29.0637 105.945 29.1226 106.279 29.1103C106.718 29.1515 107.159 29.0498 107.535 28.8203C107.912 28.5909 108.205 28.246 108.37 27.8369L110.134 27.8369ZM103.852 25.1348H108.378C108.395 24.8352 108.35 24.5354 108.245 24.2541C108.14 23.9729 107.979 23.7164 107.77 23.5006C107.562 23.2849 107.311 23.1145 107.033 23.0003C106.756 22.8861 106.458 22.8305 106.158 22.8369C105.855 22.8351 105.555 22.8933 105.275 23.008C104.995 23.1227 104.74 23.2918 104.526 23.5054C104.312 23.7191 104.142 23.973 104.026 24.2527C103.91 24.5323 103.851 24.8321 103.852 25.1348Z" fill="white"/>
<path d="M37.4883 11.2534H38.2861C38.4235 11.2705 38.5629 11.259 38.6955 11.2195C38.8282 11.1801 38.9513 11.1136 39.057 11.0242C39.1627 10.9349 39.2487 10.8246 39.3096 10.7003C39.3706 10.576 39.4052 10.4405 39.4111 10.3022C39.4111 9.75193 38.9971 9.39646 38.2949 9.39646C38.1542 9.3768 38.011 9.38553 37.8737 9.42214C37.7364 9.45875 37.6079 9.52249 37.4956 9.60961C37.3834 9.69672 37.2897 9.80544 37.2202 9.92935C37.1507 10.0533 37.1067 10.1898 37.0908 10.331H36.2148C36.2299 10.0747 36.2976 9.82428 36.4136 9.59527C36.5297 9.36626 36.6917 9.16359 36.8894 8.99989C37.0872 8.83618 37.3166 8.71494 37.5633 8.64372C37.8099 8.5725 38.0686 8.55282 38.3232 8.58591C39.498 8.58591 40.3252 9.24362 40.3252 10.1904C40.328 10.5076 40.2219 10.8161 40.0246 11.0645C39.8273 11.3129 39.5508 11.486 39.2412 11.5551V11.6255C39.6082 11.6417 39.9538 11.8027 40.2025 12.073C40.4512 12.3434 40.5828 12.7013 40.5684 13.0683C40.5412 13.3322 40.4616 13.588 40.3343 13.8208C40.207 14.0535 40.0345 14.2585 39.827 14.4237C39.6194 14.5889 39.381 14.7111 39.1256 14.7829C38.8702 14.8548 38.6031 14.875 38.3398 14.8423C38.076 14.8782 37.8077 14.8607 37.5508 14.7907C37.2939 14.7208 37.0537 14.5998 36.8446 14.4351C36.6354 14.2703 36.4616 14.0651 36.3334 13.8317C36.2053 13.5983 36.1254 13.3415 36.0986 13.0766H36.9883C37.042 13.6474 37.5664 14.0156 38.3398 14.0156C39.1133 14.0156 39.6182 13.6021 39.6182 13.0191C39.6182 12.4277 39.1426 12.0635 38.3115 12.0635H37.4883V11.2534Z" fill="white"/>
<path d="M41.5791 13.4243C41.5791 12.6138 42.1836 12.1465 43.2539 12.0801L44.4736 12.0098V11.6211C44.4736 11.1455 44.1602 10.877 43.5518 10.877C43.0557 10.877 42.7129 11.0591 42.6133 11.3774H41.7529C41.8437 10.604 42.5723 10.1079 43.5938 10.1079C44.7227 10.1079 45.3594 10.6699 45.3594 11.6211V14.6978H44.5029V14.0649H44.4326C44.2899 14.2919 44.0895 14.477 43.8519 14.6012C43.6143 14.7254 43.3479 14.7843 43.0801 14.7719C42.891 14.7916 42.7 14.7714 42.5192 14.7127C42.3385 14.654 42.172 14.5581 42.0306 14.4311C41.8892 14.3042 41.7759 14.149 41.6982 13.9756C41.6204 13.8021 41.5798 13.6144 41.5791 13.4243ZM44.4736 13.0395V12.6631L43.374 12.7334C42.7539 12.7749 42.4726 12.9858 42.4726 13.3828C42.4726 13.7881 42.8242 14.0239 43.3076 14.0239C43.4493 14.0383 43.5923 14.024 43.7284 13.9819C43.8644 13.9398 43.9905 13.8708 44.0993 13.7789C44.2081 13.6871 44.2973 13.5743 44.3616 13.4473C44.4259 13.3202 44.464 13.1816 44.4736 13.0395Z" fill="white"/>
<path d="M47.7178 10.9429V14.6978H46.8291V10.1948H49.794V10.9428L47.7178 10.9429Z" fill="white"/>
<path d="M55.1797 12.4443C55.1797 13.875 54.4561 14.7719 53.3193 14.7719C53.0403 14.791 52.7616 14.7299 52.5161 14.5959C52.2706 14.4619 52.0685 14.2606 51.9336 14.0156H51.8633V16.1948H50.9746V10.1948H51.8301V10.939H51.8965C52.0338 10.6854 52.2386 10.4747 52.4881 10.3302C52.7377 10.1857 53.0223 10.113 53.3106 10.1201C54.4561 10.1201 55.1797 11.0131 55.1797 12.4443ZM54.2656 12.4443C54.2656 11.4931 53.8154 10.9184 53.0625 10.9184C52.3145 10.9184 51.8467 11.5053 51.8467 12.4482C51.8467 13.3867 52.3145 13.9741 53.0586 13.9741C53.8154 13.9741 54.2656 13.3994 54.2656 12.4443Z" fill="white"/>
<path d="M56.3633 16.3106V15.5454C56.4595 15.5576 56.5564 15.5632 56.6533 15.562C56.8427 15.576 57.0305 15.5197 57.1808 15.4037C57.3311 15.2877 57.4333 15.1203 57.4678 14.9336L57.5342 14.7144L55.9043 10.1948H56.8721L58.001 13.7715H58.0713L59.1963 10.1948H60.1387L58.46 14.8838C58.0752 15.9795 57.6495 16.3311 56.7315 16.3311C56.6573 16.3311 56.4463 16.3228 56.3633 16.3106Z" fill="white"/>
<path d="M60.8311 13.4198H61.7158C61.8027 13.8168 62.1748 14.0238 62.6953 14.0238C63.2871 14.0238 63.6504 13.763 63.6504 13.3578C63.6504 12.9237 63.3242 12.7167 62.6953 12.7167H62.0215V12.0262H62.6836C63.2207 12.0262 63.4941 11.8197 63.4941 11.4432C63.4941 11.1127 63.2295 10.8602 62.6836 10.8602C62.1865 10.8602 61.8232 11.0712 61.7656 11.4267H60.9092C60.9732 11.0182 61.195 10.6512 61.5268 10.4045C61.8586 10.1579 62.274 10.0514 62.6836 10.1078C63.7539 10.1078 64.3662 10.5917 64.3662 11.3524C64.3712 11.5643 64.3033 11.7714 64.1739 11.9392C64.0445 12.107 63.8614 12.2253 63.6553 12.2743V12.3446C63.9007 12.3763 64.126 12.4969 64.2884 12.6837C64.4507 12.8705 64.5389 13.1103 64.5361 13.3578C64.5361 14.2138 63.8076 14.7802 62.6953 14.7802C61.7119 14.7801 60.9131 14.3295 60.8311 13.4198Z" fill="white"/>
<path d="M65.8159 14.6978V10.1948H66.6968V13.292H66.7671L68.8423 10.1948H69.7231V14.6978H68.8423V11.584H68.7759L66.6968 14.6978L65.8159 14.6978Z" fill="white"/>
<path d="M74.5757 10.9428H73.1577V14.6977H72.2681V10.9428H70.8501V10.1948H74.5757V10.9428Z" fill="white"/>
<path d="M79.3627 13.482C79.2416 13.8935 78.9798 14.2494 78.623 14.4875C78.2662 14.7257 77.837 14.8309 77.4106 14.7847C77.1139 14.7926 76.8191 14.7358 76.5466 14.6182C76.2741 14.5007 76.0304 14.3253 75.8325 14.1041C75.6346 13.883 75.4872 13.6214 75.4005 13.3376C75.3138 13.0538 75.2899 12.7545 75.3305 12.4605C75.291 12.1656 75.3153 11.8657 75.4018 11.581C75.4883 11.2964 75.6349 11.0336 75.8318 10.8105C76.0286 10.5874 76.2711 10.4093 76.5428 10.2881C76.8146 10.1669 77.1091 10.1054 77.4067 10.108C78.6596 10.108 79.4164 10.964 79.4164 12.378V12.6881H76.2367V12.7379C76.2227 12.9032 76.2433 13.0696 76.2974 13.2264C76.3514 13.3832 76.4377 13.527 76.5507 13.6485C76.6636 13.77 76.8007 13.8665 76.9532 13.9318C77.1056 13.9972 77.2701 14.0299 77.436 14.0279C77.6484 14.0533 77.8636 14.0149 78.0542 13.9177C78.2447 13.8205 78.4021 13.6689 78.5063 13.482L79.3627 13.482ZM76.2367 12.0308H78.5101C78.5214 11.8798 78.5009 11.7281 78.45 11.5854C78.3991 11.4427 78.319 11.3123 78.2147 11.2024C78.1104 11.0926 77.9843 11.0058 77.8445 10.9475C77.7046 10.8893 77.5542 10.861 77.4027 10.8643C77.249 10.8623 77.0964 10.891 76.9539 10.9489C76.8115 11.0068 76.6821 11.0926 76.5734 11.2014C76.4647 11.3101 76.3789 11.4396 76.3211 11.582C76.2633 11.7245 76.2346 11.8771 76.2367 12.0308Z" fill="white"/>
<path d="M83.1304 10.1948H85.1606C86.0415 10.1948 86.5581 10.6411 86.5581 11.3398C86.5595 11.5615 86.4847 11.777 86.3462 11.9501C86.2077 12.1233 86.014 12.2436 85.7974 12.291V12.3613C86.0603 12.3779 86.3069 12.4949 86.4861 12.6881C86.6653 12.8813 86.7634 13.1359 86.7603 13.3994C86.7603 14.185 86.1694 14.6977 85.1812 14.6977H83.1304V10.1948ZM84.0112 10.877V12.043H84.8921C85.4292 12.043 85.686 11.8364 85.686 11.4556C85.686 11.1045 85.4624 10.8769 84.9907 10.8769L84.0112 10.877ZM84.0112 12.6963V14.0156H85.065C85.5904 14.0156 85.8716 13.7837 85.8716 13.3579C85.8716 12.9072 85.5533 12.6963 84.9536 12.6963L84.0112 12.6963Z" fill="white"/>
</g>
<defs>
<clipPath id="clip0_5323_903">
<rect width="119.664" height="40" fill="white" transform="translate(0.75)"/>
</clipPath>
</defs>
</svg>
