<svg width="1312" height="220" viewBox="0 0 1312 220" fill="none" xmlns="http://www.w3.org/2000/svg">
<rect y="20" width="1312" height="200" rx="42" fill="url(#paint0_linear_6253_732)"/>
<mask id="mask0_6253_732" style="mask-type:alpha" maskUnits="userSpaceOnUse" x="0" y="20" width="1312" height="200">
<rect y="20" width="1312" height="200" rx="42" fill="#D9D9D9"/>
</mask>
<g mask="url(#mask0_6253_732)">
<path d="M1113 1143.53C1383.07 1143.53 1602 917.365 1602 638.37C1602 359.374 1383.07 133.204 1113 133.204C842.933 133.204 624 359.374 624 638.37C624 917.365 842.933 1143.53 1113 1143.53Z" fill="url(#paint1_radial_6253_732)"/>
<g clip-path="url(#clip0_6253_732)">
<path d="M1049.55 143.948L1047.95 74.2796L1072.03 35.4424L1117.64 8.005L1171.61 38.0073L1188.64 79.1245L1179.7 146.176C1144.04 142.73 1099.73 140.891 1049.55 143.922V143.948Z" fill="url(#paint2_linear_6253_732)"/>
<g style="mix-blend-mode:multiply" opacity="0.51">
<path d="M1056.66 60.0556L1065.76 45.4949L1066.19 143.093C1063.58 143.197 1060.98 143.326 1058.31 143.456L1056.66 60.0556ZM1078.42 142.679C1081.13 142.601 1083.82 142.549 1086.48 142.497L1087.59 26.2188L1077.61 32.2037L1078.42 142.653V142.679ZM1107.92 142.445L1109.96 11.114L1099.32 17.5135L1099.68 142.394C1102.45 142.394 1105.18 142.394 1107.9 142.42L1107.92 142.445ZM1161.72 32.5146L1151.54 26.8665L1142.18 143.456C1145.08 143.611 1147.95 143.767 1150.76 143.922L1161.72 32.5146ZM1163.35 144.777C1166.32 145.01 1169.24 145.244 1172.08 145.477L1182.31 63.8383L1174.09 43.9922L1163.35 144.777ZM1120.97 142.653C1123.81 142.73 1126.6 142.808 1129.37 142.912L1138.23 19.4825L1126.01 13.1608L1120.97 142.679V142.653Z" fill="#A97C50"/>
</g>
<path opacity="0.8" d="M1049.55 143.948C1049.55 143.948 926.85 166.385 856.519 259.527L937.133 280.073C937.133 280.073 994.468 156.229 1138 143.249C1111.41 142.057 1081.7 142.005 1049.55 143.948Z" fill="url(#paint3_linear_6253_732)"/>
<path d="M1011 122.522L1012.71 145.192" stroke="#A97C50" stroke-width="7.47619" stroke-miterlimit="10"/>
<path d="M1031.52 121.719L1032.32 143.56" stroke="#A97C50" stroke-width="7.47619" stroke-miterlimit="10"/>
<path d="M1049.55 121.226C1049.55 121.226 979.198 121.848 922.638 131.331C922.096 131.434 921.734 131.978 921.889 132.522L929.787 171.02" stroke="#D4B354" stroke-width="7.47619" stroke-miterlimit="10"/>
<path d="M945.272 128.04L951.906 162.703" stroke="#D4B354" stroke-width="7.47619" stroke-miterlimit="10"/>
<path d="M968.268 125.423L973.333 155.772" stroke="#D4B354" stroke-width="7.47619" stroke-miterlimit="10"/>
<path d="M989.869 123.791L993.378 150.227" stroke="#D4B354" stroke-width="7.47619" stroke-miterlimit="10"/>
<path d="M1011 122.522L1012.71 145.192" stroke="#D4B354" stroke-width="7.47619" stroke-miterlimit="10"/>
<path d="M1031.52 121.719L1032.32 143.56" stroke="#D4B354" stroke-width="7.47619" stroke-miterlimit="10"/>
<path d="M1188.64 79.1244L1285.15 117.418L1273.85 158.224C1273.31 160.141 1271.37 161.281 1269.46 160.815C1259.31 158.25 1219.52 150.555 1179.7 146.176L1188.64 79.1244Z" fill="url(#paint4_linear_6253_732)"/>
<path style="mix-blend-mode:multiply" opacity="0.59" d="M1285.27 117.625L1274.09 158.017C1273.52 160.115 1271.37 161.359 1269.26 160.789C1241.07 153.249 1179.8 146.384 1179.8 146.384L1188.74 79.3318" fill="url(#paint5_linear_6253_732)"/>
<g style="mix-blend-mode:multiply" opacity="0.51">
<g style="mix-blend-mode:multiply" opacity="0.51">
<path d="M1186.57 147.006L1197.63 81.5342L1205.05 84.3323L1191.66 147.368L1186.57 147.006Z" fill="#A97C50"/>
</g>
<g style="mix-blend-mode:multiply" opacity="0.51">
<path d="M1199.44 148.871L1210.34 86.8195L1217.76 89.6176L1204.53 149.363L1199.44 148.871Z" fill="#A97C50"/>
</g>
<g style="mix-blend-mode:multiply" opacity="0.51">
<path d="M1212.33 150.736L1223.03 92.105L1230.45 94.9031L1217.4 151.384L1212.33 150.736Z" fill="#A97C50"/>
</g>
<g style="mix-blend-mode:multiply" opacity="0.51">
<path d="M1225.23 152.602L1235.74 97.3643L1243.16 100.188L1230.27 153.405L1225.23 152.602Z" fill="#A97C50"/>
</g>
<g style="mix-blend-mode:multiply" opacity="0.51">
<path d="M1238.12 154.467L1248.46 102.65L1255.87 105.474L1243.13 155.4L1238.12 154.467Z" fill="#A97C50"/>
</g>
<g style="mix-blend-mode:multiply" opacity="0.51">
<path d="M1251.01 156.358L1261.17 107.935L1268.58 110.759L1256 157.421L1251.01 156.358Z" fill="#A97C50"/>
</g>
<g style="mix-blend-mode:multiply" opacity="0.51">
<path d="M1263.91 158.224L1273.85 113.22L1281.3 116.019L1268.89 159.442L1263.91 158.224Z" fill="#A97C50"/>
</g>
</g>
<path d="M1287.73 114.801L1277.14 81.9227C1276.83 80.9382 1276.31 80.0573 1275.61 79.28L1262.38 64.4343C1261.68 63.657 1260.83 63.0352 1259.9 62.6207L1122.21 1.16514C1120.01 0.180604 1117.48 0.336057 1115.44 1.57968L1070.61 28.6802C1069.63 29.2761 1068.78 30.1052 1068.18 31.0897L1042.14 73.036C1040.64 75.4455 1042.19 78.6064 1045.03 78.8655H1047.85L1047.9 74.2796L1071.44 36.401C1071.83 35.8051 1072.34 35.287 1072.94 34.9242L1115.36 9.40412C1116.76 8.57504 1118.46 8.54913 1119.89 9.32639L1165.54 35.2351C1167.2 36.1419 1168.49 37.6187 1169.21 39.3546L1183.68 74.2796C1184.61 76.5078 1186.39 78.2696 1188.61 79.1764L1284.81 117.573C1286.54 118.247 1288.3 116.615 1287.7 114.853L1287.73 114.801Z" fill="url(#paint6_linear_6253_732)"/>
<path d="M1048.19 73.8391L1072.03 35.4424L1117.61 8.005L1168.33 36.401L1185.1 76.8964L1282.61 116.407" stroke="#8B5E3C" stroke-width="11.2143" stroke-miterlimit="10" stroke-linecap="round"/>
<g opacity="0.4">
<path d="M1273.03 166.851C1273.03 166.851 1288.56 174.598 1262.54 171.593C1250.94 170.245 1250.01 162.058 1250.01 162.058L1231.71 164.416C1231.71 164.416 1227.55 162.861 1232.95 156.747" stroke="#003715" stroke-width="11.2143" stroke-miterlimit="10"/>
</g>
<path d="M1231.71 164.416C1230.76 164.338 1229.96 163.69 1229.7 162.758C1229 160.296 1228.74 155.503 1229.1 150.011C1229.49 144.518 1230.39 139.777 1231.43 137.445C1231.82 136.564 1232.69 136.02 1233.65 136.098L1266.67 139.699C1268.17 139.803 1270.99 145.192 1270.44 153.12C1269.9 161.048 1266.96 165.53 1265.46 165.426L1231.71 164.416Z" fill="url(#paint7_linear_6253_732)"/>
<path style="mix-blend-mode:multiply" opacity="0.17" d="M1235.44 150.456C1235.92 143.489 1235.2 137.766 1233.83 137.671C1232.46 137.577 1230.97 143.148 1230.49 150.114C1230.01 157.08 1230.73 162.804 1232.1 162.898C1233.46 162.993 1234.96 157.422 1235.44 150.456Z" fill="url(#paint8_linear_6253_732)"/>
<path d="M1252.98 131.797C1253.11 130.838 1253.83 130.087 1254.76 129.905C1257.24 129.361 1262.05 129.439 1267.5 130.19C1272.95 130.942 1277.58 132.185 1279.82 133.377C1280.68 133.818 1281.14 134.75 1281.01 135.683L1275.17 168.458C1274.97 169.96 1269.41 172.396 1261.58 171.308C1253.75 170.219 1249.46 166.981 1249.67 165.478L1252.98 131.797Z" fill="url(#paint9_linear_6253_732)"/>
<path style="mix-blend-mode:multiply" opacity="0.17" d="M1279.48 135.77C1279.66 134.41 1274.22 132.531 1267.33 131.573C1260.43 130.616 1254.68 130.943 1254.5 132.304C1254.31 133.664 1259.75 135.543 1266.65 136.501C1273.54 137.458 1279.29 137.131 1279.48 135.77Z" fill="url(#paint10_linear_6253_732)"/>
<g style="mix-blend-mode:multiply" opacity="0.12">
<g style="mix-blend-mode:multiply">
<path d="M1170.76 33.007L1187.66 73.2951L1286.7 112.262L1276.54 80.5236L1170.76 33.007Z" fill="url(#paint11_linear_6253_732)"/>
</g>
</g>
<path d="M1118.18 53.3453C1125.53 53.3453 1131.49 47.3714 1131.49 40.0023C1131.49 32.6332 1125.53 26.6593 1118.18 26.6593C1110.83 26.6593 1104.87 32.6332 1104.87 40.0023C1104.87 47.3714 1110.83 53.3453 1118.18 53.3453Z" fill="#C49A6C"/>
<path d="M1118.18 49.3034C1123.3 49.3034 1127.46 45.1391 1127.46 40.0022C1127.46 34.8652 1123.3 30.7009 1118.18 30.7009C1113.06 30.7009 1108.9 34.8652 1108.9 40.0022C1108.9 45.1391 1113.06 49.3034 1118.18 49.3034Z" fill="#603913"/>
<path d="M1137.79 143.067L1092.08 142.29V93.3484L1141.59 93.7629L1137.79 143.067Z" fill="#603913"/>
<path d="M1082.01 83.244L1082.24 90.913L1086.86 91.0166V142.497C1086.86 142.497 1106.55 142.446 1116.22 142.705C1125.88 142.964 1142.18 143.456 1142.18 143.456L1146.14 92.1825L1150.06 92.2603L1150.68 83.244H1081.98H1082.01ZM1094.59 139.906L1115.7 120.889L1135.62 140.943C1129.37 140.554 1113.19 139.673 1094.59 139.906ZM1119.76 117.262L1141.28 97.8825L1138.31 136.383L1119.76 117.262ZM1109.21 93.5039L1136.63 94.1257L1115.88 113.272L1096.58 93.3743L1109.21 93.478V93.5039ZM1092.08 97.1311L1111.85 117.003L1092.08 135.243V97.1311Z" fill="#C49A6C"/>
</g>
</g>
<path d="M1049.55 143.948L1047.95 74.2796L1072.03 35.4424L1117.64 8.005L1171.61 38.0073L1188.64 79.1245L1179.7 146.176C1144.04 142.73 1099.73 140.891 1049.55 143.922V143.948Z" fill="url(#paint12_linear_6253_732)"/>
<g style="mix-blend-mode:multiply" opacity="0.51">
<path d="M1056.66 60.0556L1065.75 45.4949L1066.19 143.093C1063.58 143.197 1060.97 143.326 1058.31 143.456L1056.66 60.0556ZM1078.42 142.679C1081.13 142.601 1083.82 142.549 1086.48 142.497L1087.59 26.2188L1077.61 32.2037L1078.42 142.653V142.679ZM1107.92 142.445L1109.96 11.114L1099.32 17.5135L1099.68 142.394C1102.44 142.394 1105.18 142.394 1107.9 142.42L1107.92 142.445ZM1161.72 32.5146L1151.54 26.8665L1142.18 143.456C1145.08 143.611 1147.95 143.767 1150.76 143.922L1161.72 32.5146ZM1163.35 144.777C1166.32 145.01 1169.24 145.244 1172.08 145.477L1182.31 63.8383L1174.09 43.9922L1163.35 144.777ZM1120.97 142.653C1123.81 142.73 1126.6 142.808 1129.37 142.912L1138.23 19.4825L1126.01 13.1608L1120.97 142.679V142.653Z" fill="#A97C50"/>
</g>
<path d="M1011 122.522L1012.71 145.192" stroke="#A97C50" stroke-width="7.47619" stroke-miterlimit="10"/>
<path d="M1031.52 121.719L1032.32 143.56" stroke="#A97C50" stroke-width="7.47619" stroke-miterlimit="10"/>
<path d="M1049.55 121.226C1049.55 121.226 979.197 121.848 922.638 131.331C922.095 131.434 921.734 131.978 921.889 132.522L929.787 171.02" stroke="#D4B354" stroke-width="7.47619" stroke-miterlimit="10"/>
<path d="M945.272 128.04L951.905 162.703" stroke="#D4B354" stroke-width="7.47619" stroke-miterlimit="10"/>
<path d="M968.268 125.423L973.333 155.772" stroke="#D4B354" stroke-width="7.47619" stroke-miterlimit="10"/>
<path d="M989.868 123.791L993.378 150.227" stroke="#D4B354" stroke-width="7.47619" stroke-miterlimit="10"/>
<path d="M1011 122.522L1012.71 145.192" stroke="#D4B354" stroke-width="7.47619" stroke-miterlimit="10"/>
<path d="M1031.52 121.719L1032.32 143.56" stroke="#D4B354" stroke-width="7.47619" stroke-miterlimit="10"/>
<path d="M1188.64 79.1245L1285.15 117.418L1273.85 158.224C1273.31 160.141 1271.37 161.281 1269.46 160.815C1259.31 158.25 1219.52 150.555 1179.7 146.176L1188.64 79.1245Z" fill="url(#paint13_linear_6253_732)"/>
<path style="mix-blend-mode:multiply" opacity="0.59" d="M1285.27 117.625L1274.09 158.017C1273.52 160.115 1271.37 161.359 1269.25 160.789C1241.07 153.249 1179.8 146.384 1179.8 146.384L1188.74 79.3318" fill="url(#paint14_linear_6253_732)"/>
<g style="mix-blend-mode:multiply" opacity="0.51">
<g style="mix-blend-mode:multiply" opacity="0.51">
<path d="M1186.57 147.006L1197.63 81.5342L1205.05 84.3323L1191.66 147.368L1186.57 147.006Z" fill="#A97C50"/>
</g>
<g style="mix-blend-mode:multiply" opacity="0.51">
<path d="M1199.44 148.871L1210.34 86.8195L1217.76 89.6176L1204.53 149.363L1199.44 148.871Z" fill="#A97C50"/>
</g>
<g style="mix-blend-mode:multiply" opacity="0.51">
<path d="M1212.33 150.736L1223.03 92.105L1230.45 94.9031L1217.4 151.384L1212.33 150.736Z" fill="#A97C50"/>
</g>
<g style="mix-blend-mode:multiply" opacity="0.51">
<path d="M1225.23 152.602L1235.74 97.3643L1243.16 100.188L1230.27 153.405L1225.23 152.602Z" fill="#A97C50"/>
</g>
<g style="mix-blend-mode:multiply" opacity="0.51">
<path d="M1238.12 154.467L1248.46 102.65L1255.87 105.474L1243.13 155.4L1238.12 154.467Z" fill="#A97C50"/>
</g>
<g style="mix-blend-mode:multiply" opacity="0.51">
<path d="M1251.01 156.358L1261.17 107.935L1268.58 110.759L1256 157.421L1251.01 156.358Z" fill="#A97C50"/>
</g>
<g style="mix-blend-mode:multiply" opacity="0.51">
<path d="M1263.91 158.224L1273.85 113.22L1281.3 116.019L1268.89 159.442L1263.91 158.224Z" fill="#A97C50"/>
</g>
</g>
<path d="M1287.73 114.801L1277.14 81.9227C1276.83 80.9382 1276.31 80.0573 1275.61 79.28L1262.38 64.4343C1261.68 63.657 1260.83 63.0352 1259.9 62.6207L1122.21 1.16514C1120.01 0.180604 1117.48 0.336057 1115.44 1.57968L1070.61 28.6802C1069.63 29.2761 1068.78 30.1052 1068.18 31.0897L1042.14 73.036C1040.64 75.4455 1042.19 78.6064 1045.03 78.8655H1047.85L1047.9 74.2796L1071.44 36.401C1071.83 35.8051 1072.34 35.287 1072.94 34.9242L1115.36 9.40412C1116.76 8.57504 1118.46 8.54913 1119.89 9.32639L1165.54 35.2351C1167.19 36.1419 1168.49 37.6187 1169.21 39.3546L1183.68 74.2796C1184.61 76.5078 1186.39 78.2696 1188.61 79.1764L1284.81 117.573C1286.54 118.247 1288.3 116.615 1287.7 114.853L1287.73 114.801Z" fill="url(#paint15_linear_6253_732)"/>
<path d="M1048.18 73.8391L1072.03 35.4424L1117.61 8.005L1168.33 36.401L1185.1 76.8964L1282.61 116.407" stroke="#8B5E3C" stroke-width="11.2143" stroke-miterlimit="10" stroke-linecap="round"/>
<g opacity="0.4">
<path d="M1273.03 166.851C1273.03 166.851 1288.56 174.598 1262.54 171.593C1250.94 170.245 1250.01 162.058 1250.01 162.058L1231.71 164.416C1231.71 164.416 1227.55 162.861 1232.95 156.747" stroke="#003715" stroke-width="11.2143" stroke-miterlimit="10"/>
</g>
<path d="M1231.71 164.416C1230.76 164.338 1229.96 163.69 1229.7 162.758C1229 160.296 1228.74 155.503 1229.1 150.011C1229.49 144.518 1230.39 139.777 1231.43 137.445C1231.82 136.564 1232.69 136.02 1233.65 136.098L1266.67 139.699C1268.17 139.803 1270.99 145.192 1270.44 153.12C1269.9 161.048 1266.96 165.53 1265.46 165.426L1231.71 164.416Z" fill="url(#paint16_linear_6253_732)"/>
<path style="mix-blend-mode:multiply" opacity="0.17" d="M1235.44 150.456C1235.92 143.49 1235.2 137.766 1233.83 137.671C1232.46 137.577 1230.97 143.148 1230.49 150.114C1230.01 157.08 1230.73 162.804 1232.1 162.899C1233.46 162.993 1234.96 157.422 1235.44 150.456Z" fill="url(#paint17_linear_6253_732)"/>
<path d="M1252.98 131.797C1253.11 130.838 1253.83 130.087 1254.76 129.906C1257.24 129.361 1262.05 129.439 1267.5 130.191C1272.95 130.942 1277.57 132.186 1279.82 133.377C1280.68 133.818 1281.14 134.75 1281.01 135.683L1275.17 168.458C1274.97 169.96 1269.41 172.396 1261.58 171.308C1253.75 170.22 1249.46 166.981 1249.67 165.478L1252.98 131.797Z" fill="url(#paint18_linear_6253_732)"/>
<path style="mix-blend-mode:multiply" opacity="0.17" d="M1279.48 135.77C1279.66 134.41 1274.22 132.531 1267.33 131.573C1260.43 130.616 1254.68 130.943 1254.5 132.304C1254.31 133.664 1259.75 135.544 1266.65 136.501C1273.54 137.458 1279.29 137.131 1279.48 135.77Z" fill="url(#paint19_linear_6253_732)"/>
<g style="mix-blend-mode:multiply" opacity="0.12">
<g style="mix-blend-mode:multiply">
<path d="M1170.76 33.007L1187.66 73.2951L1286.7 112.262L1276.54 80.5236L1170.76 33.007Z" fill="url(#paint20_linear_6253_732)"/>
</g>
</g>
<path d="M1118.18 53.3453C1125.53 53.3453 1131.49 47.3714 1131.49 40.0023C1131.49 32.6332 1125.53 26.6593 1118.18 26.6593C1110.83 26.6593 1104.87 32.6332 1104.87 40.0023C1104.87 47.3714 1110.83 53.3453 1118.18 53.3453Z" fill="#C49A6C"/>
<path d="M1118.18 49.3034C1123.3 49.3034 1127.46 45.1391 1127.46 40.0022C1127.46 34.8652 1123.3 30.7009 1118.18 30.7009C1113.06 30.7009 1108.9 34.8652 1108.9 40.0022C1108.9 45.1391 1113.06 49.3034 1118.18 49.3034Z" fill="#603913"/>
<path d="M1137.79 143.067L1092.08 142.29V93.3484L1141.59 93.7629L1137.79 143.067Z" fill="#603913"/>
<path d="M1082.01 83.244L1082.24 90.913L1086.86 91.0166V142.497C1086.86 142.497 1106.55 142.446 1116.22 142.705C1125.88 142.964 1142.18 143.456 1142.18 143.456L1146.14 92.1825L1150.06 92.2603L1150.68 83.244H1081.98H1082.01ZM1094.59 139.906L1115.7 120.889L1135.62 140.943C1129.37 140.554 1113.19 139.673 1094.59 139.906ZM1119.76 117.262L1141.28 97.8825L1138.31 136.383L1119.76 117.262ZM1109.21 93.5039L1136.63 94.1257L1115.88 113.272L1096.58 93.3743L1109.21 93.478V93.5039ZM1092.08 97.1311L1111.85 117.003L1092.08 135.243V97.1311Z" fill="#C49A6C"/>
<defs>
<linearGradient id="paint0_linear_6253_732" x1="0" y1="20" x2="1312" y2="220" gradientUnits="userSpaceOnUse">
<stop stop-color="#E7E8C7"/>
<stop offset="1" stop-color="#F4ECD9"/>
</linearGradient>
<radialGradient id="paint1_radial_6253_732" cx="0" cy="0" r="1" gradientUnits="userSpaceOnUse" gradientTransform="translate(1113 638.369) rotate(90) scale(583.09 564.431)">
<stop stop-color="#50B848"/>
<stop offset="1" stop-color="#CAE08B"/>
</radialGradient>
<linearGradient id="paint2_linear_6253_732" x1="1047.95" y1="77.1036" x2="1188.64" y2="77.1036" gradientUnits="userSpaceOnUse">
<stop stop-color="#C15F49"/>
<stop offset="1" stop-color="#B9161B"/>
</linearGradient>
<linearGradient id="paint3_linear_6253_732" x1="897.059" y1="300.178" x2="1096.32" y2="101.459" gradientUnits="userSpaceOnUse">
<stop offset="0.26" stop-color="#F7CC6A"/>
<stop offset="0.76" stop-color="#FFF1B6"/>
</linearGradient>
<linearGradient id="paint4_linear_6253_732" x1="1179.67" y1="120.034" x2="1285.15" y2="120.034" gradientUnits="userSpaceOnUse">
<stop stop-color="#C15F49"/>
<stop offset="1" stop-color="#B9161B"/>
</linearGradient>
<linearGradient id="paint5_linear_6253_732" x1="1268.48" y1="126.356" x2="1170.28" y2="110.842" gradientUnits="userSpaceOnUse">
<stop stop-color="white"/>
<stop offset="0.69" stop-color="#603913"/>
</linearGradient>
<linearGradient id="paint6_linear_6253_732" x1="1041.54" y1="59.0971" x2="1287.83" y2="59.0971" gradientUnits="userSpaceOnUse">
<stop stop-color="#FFDE39"/>
<stop offset="1" stop-color="#A97C50"/>
</linearGradient>
<linearGradient id="paint7_linear_6253_732" x1="1250.09" y1="160.671" x2="1248.58" y2="132.39" gradientUnits="userSpaceOnUse">
<stop stop-color="#A97C50"/>
<stop offset="1" stop-color="#FFDE39"/>
</linearGradient>
<linearGradient id="paint8_linear_6253_732" x1="1232.56" y1="142.232" x2="1233.79" y2="165.144" gradientUnits="userSpaceOnUse">
<stop offset="0.31" stop-color="#603913"/>
<stop offset="1" stop-color="white"/>
</linearGradient>
<linearGradient id="paint9_linear_6253_732" x1="1255.44" y1="150.409" x2="1283.7" y2="150.851" gradientUnits="userSpaceOnUse">
<stop stop-color="#A97C50"/>
<stop offset="1" stop-color="#FFDE39"/>
</linearGradient>
<linearGradient id="paint10_linear_6253_732" x1="1275.03" y1="134.159" x2="1252.12" y2="133.807" gradientUnits="userSpaceOnUse">
<stop offset="0.31" stop-color="#603913"/>
<stop offset="1" stop-color="white"/>
</linearGradient>
<linearGradient id="paint11_linear_6253_732" x1="1223.6" y1="85.3822" x2="1238.14" y2="49.4625" gradientUnits="userSpaceOnUse">
<stop offset="0.08" stop-color="white"/>
<stop offset="0.17" stop-color="#DAD2C9"/>
<stop offset="0.28" stop-color="#B5A492"/>
<stop offset="0.39" stop-color="#977D64"/>
<stop offset="0.49" stop-color="#7F5F41"/>
<stop offset="0.59" stop-color="#6E4A27"/>
<stop offset="0.67" stop-color="#633D18"/>
<stop offset="0.74" stop-color="#603913"/>
</linearGradient>
<linearGradient id="paint12_linear_6253_732" x1="1047.95" y1="77.1036" x2="1188.64" y2="77.1036" gradientUnits="userSpaceOnUse">
<stop stop-color="#C15F49"/>
<stop offset="1" stop-color="#B9161B"/>
</linearGradient>
<linearGradient id="paint13_linear_6253_732" x1="1179.67" y1="120.034" x2="1285.15" y2="120.034" gradientUnits="userSpaceOnUse">
<stop stop-color="#C15F49"/>
<stop offset="1" stop-color="#B9161B"/>
</linearGradient>
<linearGradient id="paint14_linear_6253_732" x1="1268.48" y1="126.356" x2="1170.28" y2="110.842" gradientUnits="userSpaceOnUse">
<stop stop-color="white"/>
<stop offset="0.69" stop-color="#603913"/>
</linearGradient>
<linearGradient id="paint15_linear_6253_732" x1="1041.54" y1="59.0971" x2="1287.83" y2="59.0971" gradientUnits="userSpaceOnUse">
<stop stop-color="#FFDE39"/>
<stop offset="1" stop-color="#A97C50"/>
</linearGradient>
<linearGradient id="paint16_linear_6253_732" x1="1250.09" y1="160.671" x2="1248.58" y2="132.39" gradientUnits="userSpaceOnUse">
<stop stop-color="#A97C50"/>
<stop offset="1" stop-color="#FFDE39"/>
</linearGradient>
<linearGradient id="paint17_linear_6253_732" x1="1232.56" y1="142.232" x2="1233.79" y2="165.144" gradientUnits="userSpaceOnUse">
<stop offset="0.31" stop-color="#603913"/>
<stop offset="1" stop-color="white"/>
</linearGradient>
<linearGradient id="paint18_linear_6253_732" x1="1255.44" y1="150.409" x2="1283.7" y2="150.851" gradientUnits="userSpaceOnUse">
<stop stop-color="#A97C50"/>
<stop offset="1" stop-color="#FFDE39"/>
</linearGradient>
<linearGradient id="paint19_linear_6253_732" x1="1275.03" y1="134.159" x2="1252.12" y2="133.807" gradientUnits="userSpaceOnUse">
<stop offset="0.31" stop-color="#603913"/>
<stop offset="1" stop-color="white"/>
</linearGradient>
<linearGradient id="paint20_linear_6253_732" x1="1223.6" y1="85.3822" x2="1238.14" y2="49.4625" gradientUnits="userSpaceOnUse">
<stop offset="0.08" stop-color="white"/>
<stop offset="0.17" stop-color="#DAD2C9"/>
<stop offset="0.28" stop-color="#B5A492"/>
<stop offset="0.39" stop-color="#977D64"/>
<stop offset="0.49" stop-color="#7F5F41"/>
<stop offset="0.59" stop-color="#6E4A27"/>
<stop offset="0.67" stop-color="#633D18"/>
<stop offset="0.74" stop-color="#603913"/>
</linearGradient>
<clipPath id="clip0_6253_732">
<rect x="856.519" y="0.517212" width="431.314" height="279.555" rx="42" fill="white"/>
</clipPath>
</defs>
</svg>
