<svg width="50" height="49" viewBox="0 0 50 49" fill="none" xmlns="http://www.w3.org/2000/svg">
<rect x="0.840278" y="0.340766" width="48.3194" height="48.3194" rx="24.1597" stroke="#EDEDED" stroke-width="0.680556"/>
<path d="M22.9583 36.6144C17.1736 35.5935 12.75 30.5574 12.75 24.5005C12.75 17.763 18.2625 12.2505 25 12.2505C31.7375 12.2505 37.25 17.763 37.25 24.5005C37.25 30.5574 32.8264 35.5935 27.0417 36.6144L26.3611 36.0699H23.6389L22.9583 36.6144Z" fill="#272427"/>
<path d="M29.7638 27.903L30.3083 24.5003H27.0416V22.1183C27.0416 21.1655 27.3819 20.4169 28.8791 20.4169H30.4444V17.2864C29.5596 17.1503 28.6069 17.0142 27.7221 17.0142C24.9319 17.0142 22.9583 18.7155 22.9583 21.778V24.5003H19.8958V27.903H22.9583V36.5461C23.6388 36.6822 24.3194 36.7503 24.9999 36.7503C25.6805 36.7503 26.361 36.6822 27.0416 36.5461V27.903H29.7638Z" fill="white"/>
</svg>
