<svg width="26" height="20" viewBox="0 0 26 20" fill="none" xmlns="http://www.w3.org/2000/svg">
<g clip-path="url(#clip0_1470_18200)">
<mask id="mask0_1470_18200" style="mask-type:alpha" maskUnits="userSpaceOnUse" x="0" y="0" width="26" height="20">
<path d="M23.5238 0H2.47619C1.10863 0 0 1.19391 0 2.66667V17.3333C0 18.8061 1.10863 20 2.47619 20H23.5238C24.8914 20 26 18.8061 26 17.3333V2.66667C26 1.19391 24.8914 0 23.5238 0Z" fill="white"/>
</mask>
<g mask="url(#mask0_1470_18200)">
<path d="M23.5238 0H2.47619C1.10863 0 0 1.19391 0 2.66667V17.3333C0 18.8061 1.10863 20 2.47619 20H23.5238C24.8914 20 26 18.8061 26 17.3333V2.66667C26 1.19391 24.8914 0 23.5238 0Z" fill="#D4112A"/>
<path fill-rule="evenodd" clip-rule="evenodd" d="M0 14.6667H26V20.0001H0V14.6667Z" fill="#20BD42"/>
<path fill-rule="evenodd" clip-rule="evenodd" d="M0 0H26V5.33333H0V0Z" fill="#02A3BD"/>
<path fill-rule="evenodd" clip-rule="evenodd" d="M0 6.66659H26V13.3333H0V6.66659ZM6.19048 5.21992C5.99733 5.29325 5.7881 5.33325 5.57143 5.33325C4.54629 5.33325 3.71429 4.43725 3.71429 3.33325C3.71429 2.22925 4.54629 1.33325 5.57143 1.33325C5.7881 1.33325 5.99733 1.37325 6.19048 1.44659C5.46867 1.72125 4.95238 2.46259 4.95238 3.33325C4.95238 4.20392 5.46867 4.94659 6.19048 5.21992Z" fill="white"/>
<path fill-rule="evenodd" clip-rule="evenodd" d="M7.42871 2.66659H8.66681V3.99992H7.42871V2.66659ZM8.66681 1.33325H9.9049V2.66659H8.66681V1.33325ZM9.9049 2.66659H11.143V3.99992H9.9049V2.66659ZM11.143 1.33325H12.3811V2.66659H11.143V1.33325ZM12.3811 2.66659H13.6192V3.99992H12.3811V2.66659ZM11.143 3.99992H12.3811V5.33325H11.143V3.99992ZM8.66681 3.99992H9.9049V5.33325H8.66681V3.99992Z" fill="#78CDDB"/>
<path d="M23.5239 0.666748H2.47628C1.45061 0.666748 0.619141 1.56218 0.619141 2.66675V17.3334C0.619141 18.438 1.45061 19.3334 2.47628 19.3334H23.5239C24.5496 19.3334 25.381 18.438 25.381 17.3334V2.66675C25.381 1.56218 24.5496 0.666748 23.5239 0.666748Z" stroke="black" stroke-opacity="0.1"/>
</g>
</g>
<defs>
<clipPath id="clip0_1470_18200">
<rect width="26" height="20" fill="white"/>
</clipPath>
</defs>
</svg>
