<svg width="373" height="108" viewBox="0 0 373 108" fill="none" xmlns="http://www.w3.org/2000/svg">
<g clip-path="url(#clip0_6253_869)">
<rect width="373" height="108" rx="12" fill="#EEEAD1"/>
<path d="M322 338.465C391.036 338.465 447 281.568 447 211.383C447 141.197 391.036 84.3002 322 84.3002C252.964 84.3002 197 141.197 197 211.383C197 281.568 252.964 338.465 322 338.465Z" fill="url(#paint0_radial_6253_869)"/>
<g clip-path="url(#clip1_6253_869)">
<path d="M305.782 87.6644L305.372 69.8554L311.528 59.9277L323.185 52.9141L336.983 60.5834L341.336 71.0939L339.05 88.2339C329.936 87.3531 318.608 86.8829 305.782 87.6577V87.6644Z" fill="url(#paint1_linear_6253_869)"/>
<g style="mix-blend-mode:multiply" opacity="0.51">
<path d="M307.598 66.2194L309.923 62.4973L310.035 87.4458C309.368 87.4722 308.701 87.5054 308.021 87.5385L307.598 66.2194ZM313.159 87.3398C313.853 87.3199 314.54 87.3067 315.22 87.2934L315.504 57.5699L312.955 59.0998L313.159 87.3332V87.3398ZM320.702 87.2802L321.224 53.7087L318.503 55.3446L318.595 87.2669C319.302 87.2669 320.002 87.2669 320.695 87.2736L320.702 87.2802ZM334.453 59.1792L331.851 57.7355L329.46 87.5385C330.2 87.5782 330.933 87.6179 331.653 87.6577L334.453 59.1792ZM334.869 87.8762C335.629 87.9358 336.375 87.9955 337.102 88.0551L339.717 67.1863L337.617 62.1132L334.869 87.8762ZM324.038 87.3332C324.764 87.353 325.477 87.3729 326.184 87.3994L328.45 55.8479L325.325 54.2319L324.038 87.3398V87.3332Z" fill="#A97C50"/>
</g>
<path opacity="0.8" d="M305.782 87.6644C305.782 87.6644 274.416 93.3998 256.437 117.209L277.044 122.461C277.044 122.461 291.7 90.8037 328.39 87.4856C321.594 87.1809 313.998 87.1677 305.782 87.6644Z" fill="url(#paint2_linear_6253_869)"/>
<path d="M295.927 82.1873L296.363 87.9823" stroke="#A97C50" stroke-width="2" stroke-miterlimit="10"/>
<path d="M301.172 81.9819L301.376 87.565" stroke="#A97C50" stroke-width="2" stroke-miterlimit="10"/>
<path d="M305.782 81.8561C305.782 81.8561 287.797 82.015 273.339 84.439C273.2 84.4655 273.108 84.6046 273.147 84.7437L275.166 94.5846" stroke="#D4B354" stroke-width="2" stroke-miterlimit="10"/>
<path d="M279.125 83.5979L280.82 92.4585" stroke="#D4B354" stroke-width="2" stroke-miterlimit="10"/>
<path d="M285.003 82.929L286.298 90.6867" stroke="#D4B354" stroke-width="2" stroke-miterlimit="10"/>
<path d="M290.525 82.5117L291.422 89.2694" stroke="#D4B354" stroke-width="2" stroke-miterlimit="10"/>
<path d="M295.927 82.1873L296.363 87.9823" stroke="#D4B354" stroke-width="2" stroke-miterlimit="10"/>
<path d="M301.172 81.9819L301.376 87.565" stroke="#D4B354" stroke-width="2" stroke-miterlimit="10"/>
<path d="M341.336 71.0939L366.005 80.8825L363.118 91.3136C362.98 91.8037 362.484 92.0951 361.995 91.9758C359.4 91.3202 349.228 89.3532 339.05 88.2339L341.336 71.0939Z" fill="url(#paint3_linear_6253_869)"/>
<path style="mix-blend-mode:multiply" opacity="0.59" d="M366.037 80.9355L363.178 91.2606C363.032 91.797 362.484 92.1149 361.943 91.9692C354.737 90.042 339.077 88.2869 339.077 88.2869L341.362 71.1469" fill="url(#paint4_linear_6253_869)"/>
<g style="mix-blend-mode:multiply" opacity="0.51">
<g style="mix-blend-mode:multiply" opacity="0.51">
<path d="M340.807 88.4459L343.634 71.7098L345.53 72.4251L342.108 88.5386L340.807 88.4459Z" fill="#A97C50"/>
</g>
<g style="mix-blend-mode:multiply" opacity="0.51">
<path d="M344.096 88.9227L346.884 73.0609L348.779 73.7762L345.398 89.0486L344.096 88.9227Z" fill="#A97C50"/>
</g>
<g style="mix-blend-mode:multiply" opacity="0.51">
<path d="M347.392 89.3996L350.126 74.412L352.022 75.1273L348.687 89.5652L347.392 89.3996Z" fill="#A97C50"/>
</g>
<g style="mix-blend-mode:multiply" opacity="0.51">
<path d="M350.688 89.8763L353.376 75.7563L355.272 76.4782L351.976 90.0817L350.688 89.8763Z" fill="#A97C50"/>
</g>
<g style="mix-blend-mode:multiply" opacity="0.51">
<path d="M353.984 90.3532L356.626 77.1074L358.521 77.8293L355.265 90.5916L353.984 90.3532Z" fill="#A97C50"/>
</g>
<g style="mix-blend-mode:multiply" opacity="0.51">
<path d="M357.28 90.8367L359.875 78.4585L361.771 79.1804L358.554 91.1082L357.28 90.8367Z" fill="#A97C50"/>
</g>
<g style="mix-blend-mode:multiply" opacity="0.51">
<path d="M360.575 91.3135L363.118 79.8096L365.02 80.5248L361.85 91.6248L360.575 91.3135Z" fill="#A97C50"/>
</g>
</g>
<path d="M366.665 80.2136L363.957 71.8091C363.878 71.5574 363.746 71.3323 363.567 71.1336L360.186 67.3387C360.007 67.14 359.789 66.981 359.552 66.8751L324.355 51.1656C323.793 50.9139 323.146 50.9536 322.624 51.2715L311.165 58.1991C310.914 58.3514 310.696 58.5633 310.544 58.815L303.886 69.5375C303.503 70.1534 303.899 70.9614 304.626 71.0276H305.346L305.359 69.8554L311.376 60.1727C311.475 60.0204 311.607 59.8879 311.759 59.7952L322.604 53.2716C322.961 53.0597 323.397 53.0531 323.76 53.2518L335.431 59.8747C335.854 60.1065 336.184 60.484 336.369 60.9277L340.067 69.8554C340.305 70.4249 340.761 70.8753 341.329 71.1071L365.919 80.9222C366.361 81.0944 366.81 80.6772 366.658 80.2268L366.665 80.2136Z" fill="url(#paint5_linear_6253_869)"/>
<path d="M305.432 69.7428L311.528 59.9277L323.179 52.9141L336.144 60.1728L340.431 70.5243L365.357 80.6242" stroke="#8B5E3C" stroke-width="2" stroke-miterlimit="10" stroke-linecap="round"/>
<g opacity="0.4">
<path d="M362.907 93.519C362.907 93.519 366.876 95.4992 360.225 94.731C357.26 94.3866 357.022 92.2937 357.022 92.2937L352.346 92.8964C352.346 92.8964 351.282 92.499 352.663 90.936" stroke="#003715" stroke-width="11.2143" stroke-miterlimit="10"/>
</g>
<path d="M352.346 92.8963C352.101 92.8765 351.897 92.7109 351.831 92.4725C351.652 91.8433 351.586 90.6181 351.679 89.214C351.778 87.81 352.009 86.598 352.273 86.0019C352.372 85.7767 352.597 85.6377 352.841 85.6575L361.282 86.5781C361.665 86.6046 362.385 87.9822 362.246 90.0088C362.108 92.0354 361.355 93.1811 360.972 93.1546L352.346 92.8963Z" fill="url(#paint6_linear_6253_869)"/>
<path style="mix-blend-mode:multiply" opacity="0.17" d="M353.298 89.3278C353.42 87.547 353.236 86.0839 352.887 86.0597C352.537 86.0356 352.155 87.4596 352.033 89.2404C351.91 91.0211 352.094 92.4843 352.444 92.5084C352.793 92.5325 353.176 91.1085 353.298 89.3278Z" fill="url(#paint7_linear_6253_869)"/>
<path d="M357.782 84.5582C357.815 84.3131 358 84.121 358.237 84.0747C358.871 83.9356 360.1 83.9555 361.493 84.1475C362.887 84.3396 364.069 84.6575 364.644 84.9622C364.862 85.0747 364.981 85.3132 364.948 85.5516L363.455 93.9296C363.402 94.3137 361.982 94.9362 359.981 94.6581C357.98 94.3799 356.883 93.552 356.936 93.1679L357.782 84.5582Z" fill="url(#paint8_linear_6253_869)"/>
<path style="mix-blend-mode:multiply" opacity="0.17" d="M364.555 85.5739C364.603 85.2261 363.213 84.7457 361.449 84.501C359.686 84.2563 358.218 84.3399 358.17 84.6877C358.122 85.0355 359.512 85.5159 361.275 85.7606C363.039 86.0053 364.507 85.9217 364.555 85.5739Z" fill="url(#paint9_linear_6253_869)"/>
<g style="mix-blend-mode:multiply" opacity="0.12">
<g style="mix-blend-mode:multiply">
<path d="M336.765 59.3052L341.084 69.6038L366.401 79.5646L363.805 71.4516L336.765 59.3052Z" fill="url(#paint10_linear_6253_869)"/>
</g>
</g>
<path d="M323.324 64.5041C325.203 64.5041 326.726 62.977 326.726 61.0933C326.726 59.2096 325.203 57.6825 323.324 57.6825C321.445 57.6825 319.923 59.2096 319.923 61.0933C319.923 62.977 321.445 64.5041 323.324 64.5041Z" fill="#C49A6C"/>
<path d="M323.324 63.4709C324.634 63.4709 325.695 62.4064 325.695 61.0933C325.695 59.7802 324.634 58.7157 323.324 58.7157C322.014 58.7157 320.953 59.7802 320.953 61.0933C320.953 62.4064 322.014 63.4709 323.324 63.4709Z" fill="#603913"/>
<path d="M328.337 87.4392L316.653 87.2405V74.7299L329.308 74.8358L328.337 87.4392Z" fill="#603913"/>
<path d="M314.077 72.1469L314.137 74.1072L315.319 74.1337V87.2934C315.319 87.2934 320.352 87.2802 322.822 87.3464C325.292 87.4126 329.46 87.5384 329.46 87.5384L330.471 74.4317L331.474 74.4516L331.633 72.1469H314.071H314.077ZM317.294 86.6311L322.69 81.7699L327.782 86.896C326.184 86.7967 322.049 86.5715 317.294 86.6311ZM323.727 80.8427L329.229 75.8888L328.469 85.7304L323.727 80.8427ZM321.032 74.7695L328.04 74.9285L322.736 79.8228L317.803 74.7364L321.032 74.7629V74.7695ZM316.653 75.6967L321.706 80.7765L316.653 85.439V75.6967Z" fill="#C49A6C"/>
</g>
</g>
<defs>
<radialGradient id="paint0_radial_6253_869" cx="0" cy="0" r="1" gradientUnits="userSpaceOnUse" gradientTransform="translate(322 211.383) rotate(90) scale(146.686 144.282)">
<stop stop-color="#50B848"/>
<stop offset="1" stop-color="#CAE08B"/>
</radialGradient>
<linearGradient id="paint1_linear_6253_869" x1="305.372" y1="70.5773" x2="341.336" y2="70.5773" gradientUnits="userSpaceOnUse">
<stop stop-color="#C15F49"/>
<stop offset="1" stop-color="#B9161B"/>
</linearGradient>
<linearGradient id="paint2_linear_6253_869" x1="266.8" y1="127.6" x2="317.737" y2="76.803" gradientUnits="userSpaceOnUse">
<stop offset="0.26" stop-color="#F7CC6A"/>
<stop offset="0.76" stop-color="#FFF1B6"/>
</linearGradient>
<linearGradient id="paint3_linear_6253_869" x1="339.044" y1="81.5514" x2="366.005" y2="81.5514" gradientUnits="userSpaceOnUse">
<stop stop-color="#C15F49"/>
<stop offset="1" stop-color="#B9161B"/>
</linearGradient>
<linearGradient id="paint4_linear_6253_869" x1="361.744" y1="83.1674" x2="336.643" y2="79.2016" gradientUnits="userSpaceOnUse">
<stop stop-color="white"/>
<stop offset="0.69" stop-color="#603913"/>
</linearGradient>
<linearGradient id="paint5_linear_6253_869" x1="303.734" y1="65.9743" x2="366.691" y2="65.9743" gradientUnits="userSpaceOnUse">
<stop stop-color="#FFDE39"/>
<stop offset="1" stop-color="#A97C50"/>
</linearGradient>
<linearGradient id="paint6_linear_6253_869" x1="357.042" y1="91.9391" x2="356.656" y2="84.7098" gradientUnits="userSpaceOnUse">
<stop stop-color="#A97C50"/>
<stop offset="1" stop-color="#FFDE39"/>
</linearGradient>
<linearGradient id="paint7_linear_6253_869" x1="352.562" y1="87.2256" x2="352.876" y2="93.0824" gradientUnits="userSpaceOnUse">
<stop offset="0.31" stop-color="#603913"/>
<stop offset="1" stop-color="white"/>
</linearGradient>
<linearGradient id="paint8_linear_6253_869" x1="358.41" y1="89.3158" x2="365.635" y2="89.4288" gradientUnits="userSpaceOnUse">
<stop stop-color="#A97C50"/>
<stop offset="1" stop-color="#FFDE39"/>
</linearGradient>
<linearGradient id="paint9_linear_6253_869" x1="363.418" y1="85.1621" x2="357.563" y2="85.0721" gradientUnits="userSpaceOnUse">
<stop offset="0.31" stop-color="#603913"/>
<stop offset="1" stop-color="white"/>
</linearGradient>
<linearGradient id="paint10_linear_6253_869" x1="350.273" y1="72.6935" x2="353.988" y2="63.5116" gradientUnits="userSpaceOnUse">
<stop offset="0.08" stop-color="white"/>
<stop offset="0.17" stop-color="#DAD2C9"/>
<stop offset="0.28" stop-color="#B5A492"/>
<stop offset="0.39" stop-color="#977D64"/>
<stop offset="0.49" stop-color="#7F5F41"/>
<stop offset="0.59" stop-color="#6E4A27"/>
<stop offset="0.67" stop-color="#633D18"/>
<stop offset="0.74" stop-color="#603913"/>
</linearGradient>
<clipPath id="clip0_6253_869">
<rect width="373" height="108" rx="12" fill="white"/>
</clipPath>
<clipPath id="clip1_6253_869">
<rect x="256.437" y="51" width="110.254" height="71.461" rx="35.7305" fill="white"/>
</clipPath>
</defs>
</svg>
