<svg width="180" height="36" viewBox="0 0 180 36" fill="none" xmlns="http://www.w3.org/2000/svg">
<path d="M23.628 22.5001L12.8391 1H0V34.2678H9.35565V13.019L20.6113 34.189H26.6448L37.9014 13.018V34.2678H47.257V1H34.4169L23.628 22.5001Z" fill="#008228"/>
<path d="M132.107 11.5495L131.191 7.59308H123.103V34.2668H132.459V23.8229C132.459 19.1223 135.56 15.3135 140.857 15.3135C142.95 15.3135 143.998 15.6357 143.998 15.6357L144.051 7.22197C138.797 6.58052 135.089 7.59108 132.108 11.5475L132.107 11.5495Z" fill="#008228"/>
<path d="M119.96 7.5931H108.743L100.538 16.3151H98.7V1H89.3444V34.2678H98.7V22.4942H100.589L109.883 34.2678H121.036L108.872 19.0714L119.96 7.5931Z" fill="#008228"/>
<path d="M162.782 6.8728C151.911 6.8728 145.566 11.6603 145.566 20.9309C145.566 30.2015 151.911 34.989 162.782 34.989C173.654 34.989 179.999 30.2015 179.999 20.9309C179.999 11.6603 173.654 6.8728 162.782 6.8728ZM162.782 28.1156C157.959 28.1156 155.287 25.3143 155.287 20.9309C155.287 16.5475 157.959 13.7462 162.782 13.7462C167.605 13.7462 170.277 16.5475 170.277 20.9309C170.277 25.3143 167.605 28.1156 162.782 28.1156Z" fill="#008228"/>
<path d="M74.9803 11.5495C73.7275 9.17026 69.5768 6.8728 64.8637 6.8728C56.5139 6.8728 50.6538 13.2584 50.6538 20.9429C50.6538 29.9501 56.39 35.001 64.399 35.001C69.7683 35.001 73.3565 32.6556 74.9803 30.3362L75.8179 34.2687H83.9852V7.60603H75.8189L74.9813 11.5505L74.9803 11.5495ZM68.0054 28.1275C63.1824 28.1275 60.5729 24.8624 60.5719 20.9429C60.5719 17.0193 63.1824 13.7462 68.0054 13.7462C72.8284 13.7462 75.2192 16.9784 75.2192 20.9429C75.2192 24.9073 72.8284 28.1275 68.0054 28.1275Z" fill="#008228"/>
</svg>
