<svg width="353" height="248" viewBox="0 0 353 248" fill="none" xmlns="http://www.w3.org/2000/svg">
<path d="M172.5 387C282.128 387 371 328.349 371 256C371 183.651 282.128 125 172.5 125C62.8715 125 -26 183.651 -26 256C-26 328.349 62.8715 387 172.5 387Z" fill="url(#paint0_radial_6289_856)"/>
<path d="M-26 377C56.2905 377 123 333.124 123 279C123 224.876 56.2905 181 -26 181C-108.29 181 -175 224.876 -175 279C-175 333.124 -108.29 377 -26 377Z" fill="url(#paint1_radial_6289_856)"/>
<g filter="url(#filter0_f_6289_856)">
<path d="M127.564 178.503C159.277 178.031 184.883 173.704 184.757 168.839C184.63 163.975 158.82 160.414 127.107 160.887C95.3943 161.359 69.7884 165.686 69.9147 170.551C70.041 175.415 95.8517 178.976 127.564 178.503Z" fill="url(#paint2_linear_6289_856)"/>
</g>
<path d="M28.1756 81.4244C28.6946 81.4178 29.1884 81.2739 29.5486 81.0244C29.9088 80.775 30.1059 80.4403 30.0967 80.0939C30.0896 79.8356 29.9678 79.5844 29.7468 79.3722C29.5258 79.1601 29.2155 78.9964 28.8552 78.9019C28.4948 78.8074 28.1006 78.7864 27.7224 78.8415C27.3442 78.8965 26.9988 79.0253 26.7302 79.2114C26.4615 79.3974 26.2816 79.6325 26.2131 79.8868C26.1445 80.1411 26.1905 80.4033 26.3453 80.6402C26.5 80.8771 26.7564 81.0781 27.0822 81.2177C27.408 81.3572 27.7885 81.4292 28.1756 81.4244ZM-12.1743 33.7487C-11.918 33.7458 -11.665 33.7092 -11.4299 33.6409C-11.1948 33.5726 -10.9822 33.4741 -10.8042 33.3509C-10.6263 33.2277 -10.4865 33.0822 -10.3929 32.9229C-10.2992 32.7636 -10.2536 32.5935 -10.2586 32.4224C-10.2845 32.0844 -10.5062 31.7663 -10.8768 31.5353C-11.2473 31.3043 -11.7379 31.1785 -12.2448 31.1843C-12.7518 31.1902 -13.2355 31.3273 -13.5939 31.5667C-13.9523 31.8061 -14.1574 32.129 -14.1658 32.4674C-14.1462 33.1893 -13.2539 33.7629 -12.1743 33.7487Z" fill="#B4D97F"/>
<path d="M319.583 81.3788C320.065 81.5068 320.604 81.5017 321.081 81.3648C321.558 81.2279 321.933 80.9703 322.126 80.6485C322.269 80.4085 322.303 80.1454 322.222 79.8927C322.141 79.64 321.95 79.4088 321.673 79.2286C321.395 79.0484 321.044 78.9271 320.663 78.8801C320.283 78.8332 319.89 78.8626 319.534 78.9647C319.178 79.0668 318.876 79.237 318.665 79.4538C318.455 79.6706 318.345 79.9243 318.35 80.1827C318.355 80.441 318.475 80.6926 318.695 80.9055C318.914 81.1184 319.223 81.2831 319.583 81.3788ZM310.035 26.9934C310.273 27.0569 310.527 27.0886 310.784 27.0864C311.04 27.0842 311.293 27.0483 311.529 26.9807C311.764 26.9131 311.978 26.8151 312.156 26.6924C312.335 26.5697 312.476 26.4247 312.57 26.2656C312.743 25.9473 312.723 25.5967 312.515 25.288C312.307 24.9792 311.928 24.7364 311.457 24.6108C310.986 24.4852 310.461 24.4866 309.992 24.6147C309.522 24.7428 309.146 24.9875 308.942 25.2974C308.541 25.968 309.031 26.7274 310.035 26.9934Z" fill="#B4D97F"/>
<path d="M0.686771 173.867C1.1677 173.998 1.70649 173.995 2.18478 173.861C2.66306 173.726 3.04172 173.47 3.23773 173.149C3.38363 172.91 3.41989 172.647 3.34197 172.394C3.26405 172.141 3.07548 171.909 2.80001 171.727C2.52454 171.546 2.17462 171.423 1.79445 171.374C1.41428 171.325 1.02089 171.353 0.664145 171.453C0.307405 171.553 0.00333485 171.722 -0.209734 171.938C-0.422803 172.154 -0.535233 172.407 -0.532816 172.665C-0.530399 172.924 -0.413301 173.176 -0.196213 173.39C0.0208753 173.604 0.328181 173.77 0.686771 173.867ZM-8.26708 119.437C-8.02973 119.502 -7.77566 119.534 -7.51927 119.533C-7.26287 119.532 -7.00928 119.498 -6.773 119.431C-6.53673 119.365 -6.32243 119.268 -6.14236 119.146C-5.96229 119.024 -5.81996 118.88 -5.72359 118.721C-5.54797 118.404 -5.56399 118.053 -5.7683 117.744C-5.97261 117.434 -6.3492 117.189 -6.81862 117.061C-7.28804 116.933 -7.81362 116.932 -8.28432 117.058C-8.75501 117.184 -9.13405 117.427 -9.34147 117.736C-9.74944 118.404 -9.26778 119.166 -8.26708 119.437Z" fill="#B4D97F"/>
<defs>
<filter id="filter0_f_6289_856" x="35.9143" y="126.845" width="182.843" height="85.7007" filterUnits="userSpaceOnUse" color-interpolation-filters="sRGB">
<feFlood flood-opacity="0" result="BackgroundImageFix"/>
<feBlend mode="normal" in="SourceGraphic" in2="BackgroundImageFix" result="shape"/>
<feGaussianBlur stdDeviation="17" result="effect1_foregroundBlur_6289_856"/>
</filter>
<radialGradient id="paint0_radial_6289_856" cx="0" cy="0" r="1" gradientUnits="userSpaceOnUse" gradientTransform="translate(172.5 256) rotate(90) scale(151.208 229.12)">
<stop stop-color="#50B848"/>
<stop offset="1" stop-color="#CAE08B"/>
</radialGradient>
<radialGradient id="paint1_radial_6289_856" cx="0" cy="0" r="1" gradientUnits="userSpaceOnUse" gradientTransform="translate(-26 279) rotate(90) scale(113.117 171.984)">
<stop stop-color="#50B848"/>
<stop offset="1" stop-color="#CAE08B"/>
</radialGradient>
<linearGradient id="paint2_linear_6289_856" x1="69.9147" y1="170.551" x2="184.734" y2="167.57" gradientUnits="userSpaceOnUse">
<stop stop-color="#50B848" stop-opacity="0.2"/>
<stop offset="1" stop-color="#005A24"/>
</linearGradient>
</defs>
</svg>
