<svg width="50" height="49" viewBox="0 0 50 49" fill="none" xmlns="http://www.w3.org/2000/svg">
<rect x="0.840278" y="0.340766" width="48.3194" height="48.3194" rx="24.1597" stroke="#EDEDED" stroke-width="0.680556"/>
<path d="M25.0005 12.6216C21.7745 12.6216 21.3697 12.6357 20.1026 12.6933C18.8381 12.7513 17.9749 12.9515 17.2196 13.2452C16.4384 13.5486 15.7757 13.9545 15.1154 14.615C14.4547 15.2753 14.0488 15.938 13.7445 16.719C13.45 17.4746 13.2495 18.338 13.1926 19.6021C13.1359 20.8692 13.1211 21.2743 13.1211 24.5004C13.1211 27.7264 13.1354 28.1301 13.1929 29.3972C13.251 30.6617 13.4512 31.5249 13.7447 32.2802C14.0484 33.0615 14.4542 33.7242 15.1147 34.3845C15.7747 35.0453 16.4374 35.4521 17.2182 35.7555C17.9739 36.0493 18.8373 36.2495 20.1016 36.3074C21.3687 36.365 21.7733 36.3792 24.999 36.3792C28.2253 36.3792 28.6289 36.365 29.8959 36.3074C31.1605 36.2495 32.0246 36.0493 32.7804 35.7555C33.5614 35.4521 34.2231 35.0453 34.8831 34.3845C35.5439 33.7242 35.9497 33.0615 36.2541 32.2805C36.5461 31.5249 36.7465 30.6615 36.8059 29.3974C36.8629 28.1303 36.8777 27.7264 36.8777 24.5004C36.8777 21.2743 36.8629 20.8694 36.8059 19.6023C36.7465 18.3378 36.5461 17.4746 36.2541 16.7193C35.9497 15.938 35.5439 15.2753 34.8831 14.615C34.2224 13.9542 33.5616 13.5484 32.7796 13.2452C32.0224 12.9515 31.1587 12.7513 29.8942 12.6933C28.6271 12.6357 28.2238 12.6216 24.9968 12.6216H25.0005ZM23.9349 14.7622C24.2512 14.7617 24.6041 14.7622 25.0005 14.7622C28.1721 14.7622 28.548 14.7736 29.8004 14.8305C30.9585 14.8835 31.5871 15.077 32.0058 15.2396C32.5601 15.4549 32.9553 15.7123 33.3708 16.1281C33.7866 16.5438 34.044 16.9398 34.2597 17.4941C34.4223 17.9123 34.6161 18.5409 34.6688 19.6991C34.7257 20.9513 34.7381 21.3275 34.7381 24.4976C34.7381 27.6678 34.7257 28.044 34.6688 29.2962C34.6159 30.4544 34.4223 31.083 34.2597 31.5012C34.0444 32.0555 33.7866 32.4502 33.3708 32.8658C32.9551 33.2815 32.5604 33.5389 32.0058 33.7542C31.5876 33.9175 30.9585 34.1106 29.8004 34.1635C28.5482 34.2204 28.1721 34.2328 25.0005 34.2328C21.8287 34.2328 21.4528 34.2204 20.2006 34.1635C19.0425 34.1101 18.4139 33.9165 17.995 33.7539C17.4406 33.5386 17.0447 33.2813 16.6289 32.8655C16.2132 32.4498 15.9558 32.0548 15.74 31.5002C15.5775 31.082 15.3837 30.4534 15.331 29.2952C15.2741 28.043 15.2627 27.6668 15.2627 24.4947C15.2627 21.3225 15.2741 20.9484 15.331 19.6961C15.3839 18.538 15.5775 17.9094 15.74 17.4906C15.9553 16.9363 16.2132 16.5403 16.6289 16.1246C17.0447 15.7088 17.4406 15.4515 17.995 15.2357C18.4137 15.0723 19.0425 14.8793 20.2006 14.8261C21.2964 14.7766 21.7211 14.7617 23.9349 14.7593V14.7622ZM31.3411 16.7346C30.5542 16.7346 29.9157 17.3724 29.9157 18.1596C29.9157 18.9465 30.5542 19.585 31.3411 19.585C32.1281 19.585 32.7665 18.9465 32.7665 18.1596C32.7665 17.3726 32.1281 16.7341 31.3411 16.7341V16.7346ZM25.0005 18.4001C21.6317 18.4001 18.9004 21.1315 18.9004 24.5004C18.9004 27.8692 21.6317 30.5994 25.0005 30.5994C28.3693 30.5994 31.0996 27.8692 31.0996 24.5004C31.0996 21.1315 28.369 18.4001 25.0003 18.4001H25.0005ZM25.0005 20.5408C27.1871 20.5408 28.96 22.3134 28.96 24.5004C28.96 26.6871 27.1871 28.46 25.0005 28.46C22.8136 28.46 21.041 26.6871 21.041 24.5004C21.041 22.3134 22.8136 20.5408 25.0005 20.5408Z" fill="#272427"/>
</svg>
