<svg width="48" height="48" viewBox="0 0 48 48" fill="none" xmlns="http://www.w3.org/2000/svg">
<path d="M24 2C15.1634 2 8 10.0052 8 19C8 27.9244 13.1066 41.2759 21.0741 45C22.9315 45.8681 25.0685 45.8681 26.9259 45C34.8934 41.2759 40 27.9243 40 19C40 10.0052 32.8366 2 24 2Z" fill="#008228"/>
<path opacity="0.5" d="M15.0452 17.75C15.171 18.4643 15.3482 19.2912 15.5552 20.2572L15.9837 22.2572C16.4707 24.5297 16.7142 25.666 17.5393 26.333C18.3643 27 19.5264 27 21.8506 27H26.1496C28.4737 27 29.6358 27 30.4608 26.333C31.2859 25.666 31.5294 24.5297 32.0164 22.2572L32.445 20.2572C32.652 19.2912 32.8291 18.4643 32.955 17.75H15.0452Z" fill="white"/>
<path fill-rule="evenodd" clip-rule="evenodd" d="M21.25 20C21.25 19.5858 21.5858 19.25 22 19.25H26C26.4142 19.25 26.75 19.5858 26.75 20C26.75 20.4142 26.4142 20.75 26 20.75H22C21.5858 20.75 21.25 20.4142 21.25 20Z" fill="white"/>
<path d="M20.3293 8.66463C20.5146 8.29415 20.9651 8.14398 21.3356 8.32922C21.7061 8.51446 21.8562 8.96497 21.671 9.33545L19.8361 13.0053C20.3192 13 20.8464 13 21.422 13H26.5781C27.1537 13 27.681 13 28.1643 13.0053L26.3293 9.33545C26.1441 8.96497 26.2943 8.51446 26.6648 8.32922C27.0352 8.14398 27.4857 8.29415 27.671 8.66463L29.8721 13.067C31.2252 13.1709 32.0742 13.4363 32.6221 14.114C33.0575 14.6526 33.1984 15.3226 33.1466 16.25H33.0002C33.0501 16.25 33.0989 16.2549 33.146 16.2642C33.1209 16.6988 33.0538 17.1898 32.9552 17.75H15.0454C14.9467 17.1898 14.8796 16.6988 14.8545 16.2642C14.9016 16.2549 14.9504 16.25 15.0002 16.25H14.8535C14.8017 15.3226 14.9426 14.6526 15.378 14.114C15.9259 13.4363 16.775 13.1709 18.1282 13.0669L20.3293 8.66463Z" fill="white"/>
</svg>
