<svg width="25" height="24" viewBox="0 0 25 24" fill="none" xmlns="http://www.w3.org/2000/svg">
<g id="Linear / Map &#38; Location / Map Point Wave">
<path id="Vector" d="M5.03857 8.51464C5.03857 4.9167 8.19669 2 12.0924 2C15.9882 2 19.1463 4.9167 19.1463 8.51464C19.1463 12.0844 16.8949 16.2499 13.3824 17.7396C12.5635 18.0868 11.6213 18.0868 10.8025 17.7396C7.28992 16.2499 5.03857 12.0844 5.03857 8.51464Z" stroke="#008228" stroke-width="1.5"/>
<path id="Vector_2" d="M14.1077 9C14.1077 10.1046 13.2054 11 12.0923 11C10.9792 11 10.0769 10.1046 10.0769 9C10.0769 7.89543 10.9792 7 12.0923 7C13.2054 7 14.1077 7.89543 14.1077 9Z" stroke="#008228" stroke-width="1.5"/>
<path id="Vector_3" d="M21.1217 15.5C21.7923 16.1025 22.1692 16.7816 22.1692 17.5C22.1692 19.9853 17.6576 22 12.0923 22C6.52697 22 2.01538 19.9853 2.01538 17.5C2.01538 16.7816 2.39238 16.1025 3.06285 15.5" stroke="#008228" stroke-width="1.5" stroke-linecap="round"/>
</g>
</svg>
