<svg width="42" height="42" viewBox="0 0 42 42" fill="none" xmlns="http://www.w3.org/2000/svg">
<g id="Linear / Map &#38; Location / Map Point Wave">
<path id="Vector" d="M8.75 14.9007C8.75 8.60429 14.2345 3.50006 21 3.50006C27.7655 3.50006 33.25 8.60429 33.25 14.9007C33.25 21.1478 29.3401 28.4374 23.2402 31.0444C21.8181 31.652 20.1819 31.652 18.7598 31.0444C12.6598 28.4374 8.75 21.1478 8.75 14.9007Z" stroke="#008228" stroke-width="3.15"/>
<path id="Vector_2" d="M24.5 15.7499C24.5 17.683 22.933 19.2499 21 19.2499C19.067 19.2499 17.5 17.683 17.5 15.7499C17.5 13.8169 19.067 12.2499 21 12.2499C22.933 12.2499 24.5 13.8169 24.5 15.7499Z" stroke="#008228" stroke-width="3.15"/>
<path id="Vector_3" d="M36.6809 27.1251C37.8453 28.1794 38.5 29.3679 38.5 30.6251C38.5 34.9743 30.6649 38.5001 21 38.5001C11.335 38.5001 3.5 34.9743 3.5 30.6251C3.5 29.3679 4.15471 28.1794 5.31907 27.1251" stroke="#008228" stroke-width="3.15" stroke-linecap="round"/>
</g>
</svg>
