<svg width="3326" height="3446" viewBox="0 0 3326 3446" fill="none" xmlns="http://www.w3.org/2000/svg">
<path d="M1645.07 3.46623C1628.67 7.33289 1612 18.5329 1601.73 32.3996C1591.33 46.5329 1570.4 92.1329 1527.07 195.2C1471.33 327.733 1470.93 328.8 1464.53 335.866C1460.67 340.133 1455.2 344.133 1449.6 346.933C1441.73 350.8 1439.47 351.333 1429.33 351.333C1410.53 351.333 1409.2 350.4 1305.33 272.666C1200 193.733 1182.53 181.466 1165.07 174.533C1154.53 170.266 1153.07 170.133 1136.67 170C1119.33 170 1119.33 170 1108.8 175.066C1085.2 186.266 1070.53 210.533 1068.53 241.866C1067.87 250.8 1069.33 262.933 1076.53 311.333C1089.47 398.533 1093.47 433.466 1096.27 479.733C1101.6 572.266 1078.8 630.266 1022.27 668.133C998.8 683.733 966.8 697.866 854.266 741.866C678.4 810.8 610.533 840.933 536.666 883.333C426.666 946.4 334.4 1029.07 252.533 1138C118.133 1316.93 34.6662 1541.73 8.79953 1794.67C-3.06714 1910.13 -2.13381 2056.8 11.4662 2198.67C43.1995 2530.13 143.6 2790.4 317.2 2990C335.2 3010.8 394.666 3070.27 415.733 3088.53C655.866 3297.47 992.666 3411.07 1451.33 3438C1591.87 3446.13 1754.93 3445.73 1896 3436.53C2321.2 3409.2 2643.87 3303.6 2876.4 3115.6C2945.07 3060.13 3005.33 2997.6 3058.8 2926.4C3212.27 2721.73 3298.53 2455.33 3319.33 2122C3325.6 2020.27 3325.6 1915.33 3319.33 1832.67C3294.13 1504.4 3170.4 1217.6 2968.4 1019.87C2896.27 949.2 2827.07 900.8 2726 850.266C2673.6 824.133 2628.93 804.8 2534 767.066C2394.67 711.866 2379.87 706 2356.67 696.133C2328.53 684.133 2314.4 676.666 2298.27 665.2C2269.07 644.533 2249.33 617.866 2238.93 585.333C2229.87 557.066 2227.33 534.133 2228.4 492.133C2229.6 444.4 2234.13 404 2250.8 293.733C2254 272 2256 254 2256 246.266C2256 223.466 2248.67 203.333 2234.8 188.933C2221.6 175.066 2208 169.333 2188.27 169.333C2158.8 169.333 2150.13 174.533 2027.33 266.666C1950 324.533 1922.4 344.4 1913.73 348.266C1898 355.2 1877.73 351.733 1864.67 339.866C1860.67 336 1855.87 330.533 1854 327.466C1852.27 324.533 1840.53 297.333 1828 267.333C1755.07 93.1996 1732.67 43.5996 1721.07 29.8662C1701.33 6.66623 1672.8 -3.33377 1645.07 3.46623ZM1231.2 1309.6C1232.27 1311.33 1329.47 1506.93 1447.47 1744.4C1565.33 1981.87 1662.27 2175.6 1662.93 2174.93C1663.47 2174.4 1760.8 1978.93 1879.2 1740.67L2094.4 1307.33H2364.13H2634V2002V2696.67L2433.07 2697.07L2232 2697.33L2231.73 2277.73L2231.33 1858.13L2011.73 2275.47L1792.13 2692.67L1662.4 2692.93L1532.67 2693.33L1313.33 2276.27L1094 1859.33L1093.33 2278L1092.67 2696.67L891.733 2697.07L690.666 2697.33V2002V1306.67H960H1229.33L1231.2 1309.6Z" fill="#007C23"/>
</svg>
