<svg width="42" height="42" viewBox="0 0 42 42" fill="none" xmlns="http://www.w3.org/2000/svg">
<g id="Linear / Map &#38; Location / Streets Map Point">
<path id="Vector" d="M21 38.5C12.7504 38.5 8.62563 38.5 6.06282 35.9372C3.5 33.3744 3.5 29.2496 3.5 21C3.5 12.7504 3.5 8.62563 6.06282 6.06282C8.62563 3.5 12.7504 3.5 21 3.5C29.2496 3.5 33.3744 3.5 35.9372 6.06282C38.5 8.62563 38.5 12.7504 38.5 21C38.5 29.2496 38.5 33.3744 35.9372 35.9372C33.3744 38.5 29.2496 38.5 21 38.5Z" stroke="#008228" stroke-width="2.625"/>
<path id="Vector_2" d="M9.625 15.3251C9.625 12.1769 12.3673 9.62476 15.75 9.62476C19.1327 9.62476 21.875 12.1769 21.875 15.3251C21.875 18.4486 19.9201 22.0934 16.8701 23.3969C16.159 23.7007 15.341 23.7007 14.6299 23.3969C11.5799 22.0934 9.625 18.4486 9.625 15.3251Z" stroke="#008228" stroke-width="2.625"/>
<path id="Vector_3" d="M24.5008 24.4997L35.8758 35.8747M24.5008 24.4997L11.1904 37.81M24.5008 24.4997L37.8126 11.1879" stroke="#008228" stroke-width="2.625" stroke-linecap="round"/>
<path id="Vector_4" d="M17.5 15.75C17.5 16.7165 16.7165 17.5 15.75 17.5C14.7835 17.5 14 16.7165 14 15.75C14 14.7835 14.7835 14 15.75 14C16.7165 14 17.5 14.7835 17.5 15.75Z" fill="#008228"/>
</g>
</svg>
