<svg width="50" height="49" viewBox="0 0 50 49" fill="none" xmlns="http://www.w3.org/2000/svg">
<rect x="0.840278" y="0.340766" width="48.3194" height="48.3194" rx="24.1597" stroke="#EDEDED" stroke-width="0.680556"/>
<path d="M25 36.7505C31.7655 36.7505 37.25 31.266 37.25 24.5005C37.25 17.735 31.7655 12.2505 25 12.2505C18.2345 12.2505 12.75 17.735 12.75 24.5005C12.75 31.266 18.2345 36.7505 25 36.7505Z" fill="#272427"/>
<path d="M22.9624 26.9921L27.8991 30.6394C28.4625 30.9503 28.8691 30.7893 29.0094 30.1164L31.0189 20.6469C31.2247 19.822 30.7045 19.4479 30.1656 19.6926L18.3658 24.2425C17.5603 24.5656 17.565 25.0149 18.2189 25.2152L21.247 26.1603L28.2574 21.7375C28.5883 21.5368 28.8921 21.6447 28.6428 21.866" fill="url(#paint0_linear_6152_5513)"/>
<defs>
<linearGradient id="paint0_linear_6152_5513" x1="26.5317" y1="24.5001" x2="28.4487" y2="28.8625" gradientUnits="userSpaceOnUse">
<stop stop-color="#EFF7FC"/>
<stop offset="1" stop-color="white"/>
</linearGradient>
</defs>
</svg>
