<svg width="1312" height="400" viewBox="0 0 1312 400" fill="none" xmlns="http://www.w3.org/2000/svg">
<g clip-path="url(#clip0_6277_6751)">
<rect width="1312" height="400" rx="42" fill="url(#paint0_linear_6277_6751)"/>
<path d="M984.462 709.927C1182.91 709.927 1343.78 603.846 1343.78 472.989C1343.78 342.131 1182.91 236.05 984.462 236.05C786.017 236.05 625.146 342.131 625.146 472.989C625.146 603.846 786.017 709.927 984.462 709.927Z" fill="url(#paint1_radial_6277_6751)"/>
<path d="M625.861 692.529C774.695 692.529 895.348 612.968 895.348 514.825C895.348 416.682 774.695 337.121 625.861 337.121C477.027 337.121 356.374 416.682 356.374 514.825C356.374 612.968 477.027 692.529 625.861 692.529Z" fill="url(#paint2_radial_6277_6751)"/>
<g filter="url(#filter0_f_6277_6751)">
<path d="M903.815 331.937C961.245 331.081 1007.62 323.246 1007.39 314.436C1007.16 305.626 960.417 299.178 902.986 300.034C845.556 300.89 799.185 308.725 799.414 317.535C799.643 326.345 846.385 332.793 903.815 331.937Z" fill="url(#paint3_linear_6277_6751)"/>
</g>
</g>
<defs>
<filter id="filter0_f_6277_6751" x="765.413" y="265.958" width="275.974" height="100.055" filterUnits="userSpaceOnUse" color-interpolation-filters="sRGB">
<feFlood flood-opacity="0" result="BackgroundImageFix"/>
<feBlend mode="normal" in="SourceGraphic" in2="BackgroundImageFix" result="shape"/>
<feGaussianBlur stdDeviation="17" result="effect1_foregroundBlur_6277_6751"/>
</filter>
<linearGradient id="paint0_linear_6277_6751" x1="0" y1="0" x2="1080.02" y2="739.022" gradientUnits="userSpaceOnUse">
<stop stop-color="#FAF6EC"/>
<stop offset="1" stop-color="#F4ECD9"/>
</linearGradient>
<radialGradient id="paint1_radial_6277_6751" cx="0" cy="0" r="1" gradientUnits="userSpaceOnUse" gradientTransform="translate(984.462 472.989) rotate(90) scale(273.488 414.743)">
<stop stop-color="#50B848"/>
<stop offset="1" stop-color="#CAE08B"/>
</radialGradient>
<radialGradient id="paint2_radial_6277_6751" cx="0" cy="0" r="1" gradientUnits="userSpaceOnUse" gradientTransform="translate(625.861 514.825) rotate(90) scale(205.116 311.057)">
<stop stop-color="#50B848"/>
<stop offset="1" stop-color="#CAE08B"/>
</radialGradient>
<linearGradient id="paint3_linear_6277_6751" x1="799.414" y1="317.535" x2="1007.35" y2="312.137" gradientUnits="userSpaceOnUse">
<stop stop-color="#50B848" stop-opacity="0.2"/>
<stop offset="1" stop-color="#005A24"/>
</linearGradient>
<clipPath id="clip0_6277_6751">
<rect width="1312" height="400" rx="42" fill="white"/>
</clipPath>
</defs>
</svg>
